# MagicaVoxel @ Ephtracy

# group
o 

# material
mtllib black ant reina.mtl
usemtl palette

# normals
vn -1 0 0
vn 1 0 0
vn 0 0 1
vn 0 0 -1
vn 0 -1 0
vn 0 1 0

# texcoords
vt 0.0175781 0.5
vt 0.138672 0.5
vt 0.423828 0.5
vt 0.974609 0.5
vt 0.990234 0.5

# verts
v -1.05 -1.6 0.9
v -1.05 -1.6 0.8
v -1.05 -0.8 0.9
v -1.05 -0.8 0.8
v -1.05 0.1 1.4
v -1.05 0.1 0.8
v -1.05 0.2 1.4
v -1.05 0.2 0.8
v -0.95 -1.1 0.1
v -0.95 -1.1 -1.6
v -0.95 -0.8 0.9
v -0.95 -0.8 0.8
v -0.95 -0.7 0.9
v -0.95 -0.7 0.8
v -0.95 0.1 0.8
v -0.95 0.1 0.7
v -0.95 0.2 0.8
v -0.95 0.2 0.7
v -0.95 0.7 0.1
v -0.95 0.7 -1.6
v -0.85 -1.6 0.4
v -0.85 -1.6 0.3
v -0.85 -1 0.2
v -0.85 -1 0.1
v -0.85 -1 -1.6
v -0.85 -1 -1.8
v -0.85 -0.8 0.4
v -0.85 -0.8 0.3
v -0.85 0.6 0.2
v -0.85 0.6 0.1
v -0.85 0.6 -1.6
v -0.85 0.6 -1.8
v -0.75 -0.8 0.4
v -0.75 -0.8 0.3
v -0.75 -0.7 0.4
v -0.75 -0.7 0.3
v -0.65 0.7 -0.1
v -0.65 0.7 -1.4
v -0.65 0.8 -0.4
v -0.65 0.8 -1.1
v -0.65 1 -0.1
v -0.65 1 -0.4
v -0.65 1 -1.1
v -0.65 1 -1.4
v -0.65 1.1 -0.1
v -0.65 1.1 -0.4
v -0.65 1.1 -1.1
v -0.65 1.1 -1.4
v -0.45 0.9 1.1
v -0.45 0.9 0.9
v -0.45 1.1 1.1
v -0.45 1.1 0.9
v -0.35 -1.1 1
v -0.35 -1.1 0.5
v -0.35 -0.8 0.9
v -0.35 -0.8 0.8
v -0.35 -0.7 0.9
v -0.35 -0.7 0.8
v -0.35 -0.5 1
v -0.35 -0.5 0.5
v -0.35 -0.2 1
v -0.35 -0.2 0.5
v -0.35 0.1 0.8
v -0.35 0.1 0.7
v -0.35 0.2 0.8
v -0.35 0.2 0.7
v -0.35 0.4 1
v -0.35 0.4 0.5
v -0.35 0.6 1.2
v -0.35 0.6 0.5
v -0.35 0.7 1.5
v -0.35 0.7 1.4
v -0.35 0.8 1.5
v -0.35 0.8 1.4
v -0.35 0.8 -0.4
v -0.35 0.8 -1.1
v -0.35 0.9 1.1
v -0.35 0.9 0.9
v -0.35 1 -0.4
v -0.35 1 -1.1
v -0.35 1.1 1.1
v -0.35 1.1 0.9
v -0.35 1.2 1.2
v -0.35 1.2 1.1
v -0.35 1.2 1
v -0.35 1.2 0.5
v -0.35 1.4 1.2
v -0.35 1.4 1.1
v -0.35 1.4 1
v -0.35 1.5 1.4
v -0.35 1.5 1.2
v -0.35 1.5 1.1
v -0.35 1.6 1.4
v -0.35 1.6 1.2
v -0.25 -0.9 0.5
v -0.25 -0.9 0.2
v -0.25 -0.8 0.4
v -0.25 -0.8 0.3
v -0.25 -0.7 0.4
v -0.25 -0.7 0.3
v -0.25 -0.6 0.5
v -0.25 -0.6 0.2
v -0.25 -0.5 0.9
v -0.25 -0.5 0.6
v -0.25 -0.2 0.9
v -0.25 -0.2 0.6
v -0.25 0.7 1.6
v -0.25 0.7 1.5
v -0.25 0.7 1.4
v -0.25 0.7 1.2
v -0.25 0.8 1.6
v -0.25 0.8 1.5
v -0.25 0.8 1.4
v -0.25 0.8 1.2
v -0.25 1 -0.5
v -0.25 1 -1
v -0.25 1.1 -0.5
v -0.25 1.1 -1
v -0.25 1.2 1
v -0.25 1.2 0.6
v -0.25 1.3 0.9
v -0.25 1.3 0.7
v -0.25 1.4 1
v -0.25 1.4 0.9
v -0.25 1.4 0.7
v -0.25 1.4 0.6
v -0.25 1.5 1
v -0.25 1.5 0.9
v -0.25 1.5 0.7
v -0.25 1.5 0.6
v -0.15 0.4 0.8
v -0.15 0.4 0.6
v -0.15 0.6 0.8
v -0.15 0.6 0.6
v -0.15 1.1 -0.6
v -0.15 1.1 -0.9
v -0.15 1.2 -0.6
v -0.15 1.2 -0.9
v -0.15 1.3 0.9
v -0.15 1.3 0.7
v -0.15 1.4 0.9
v -0.15 1.4 0.7
v -0.15 1.5 0.9
v -0.15 1.5 0.7
v -0.15 1.6 0.9
v -0.15 1.6 0.7
v 0.0500001 0.7 1.6
v 0.0500001 0.7 1.5
v 0.0500001 0.7 1.4
v 0.0500001 0.7 1.2
v 0.0500001 0.8 1.6
v 0.0500001 0.8 1.5
v 0.0500001 0.8 1.4
v 0.0500001 0.8 1.2
v 0.0500001 1.3 1
v 0.0500001 1.3 0.9
v 0.0500001 1.3 0.7
v 0.0500001 1.3 0.6
v 0.0500001 1.4 1
v 0.0500001 1.4 0.9
v 0.0500001 1.4 0.7
v 0.0500001 1.4 0.6
v 0.0500001 1.5 1
v 0.0500001 1.5 0.9
v 0.0500001 1.5 0.7
v 0.0500001 1.5 0.6
v 0.15 0.7 1.5
v 0.15 0.7 1.4
v 0.15 0.8 1.5
v 0.15 0.8 1.4
v 0.15 1.2 1.1
v 0.15 1.2 1
v 0.15 1.4 1.2
v 0.15 1.4 1.1
v 0.15 1.4 1
v 0.15 1.5 1.4
v 0.15 1.5 1.2
v 0.15 1.5 1.1
v 0.15 1.6 1.4
v 0.15 1.6 1.2
v 0.35 0.8 -0.1
v 0.35 0.8 -0.4
v 0.35 0.8 -1.1
v 0.35 0.8 -1.4
v 0.35 1 -0.1
v 0.35 1 -0.4
v 0.35 1 -1.1
v 0.35 1 -1.4
v 0.35 1.1 -0.1
v 0.35 1.1 -0.4
v 0.35 1.1 -1.1
v 0.35 1.1 -1.4
v 0.75 -1.6 0.4
v 0.75 -1.6 0.3
v 0.75 -0.8 0.4
v 0.75 -0.8 0.3
v 0.85 -1.6 0.9
v 0.85 -1.6 0.8
v 0.85 -0.8 0.9
v 0.85 -0.8 0.8
v 0.85 0.1 1.4
v 0.85 0.1 0.8
v 0.85 0.2 1.4
v 0.85 0.2 0.8
v -0.95 -1.6 0.9
v -0.95 -1.6 0.8
v -0.95 -0.8 0.9
v -0.95 -0.8 0.8
v -0.95 0.1 1.4
v -0.95 0.1 0.8
v -0.95 0.2 1.4
v -0.95 0.2 0.8
v -0.75 -1.6 0.4
v -0.75 -1.6 0.3
v -0.75 -0.8 0.4
v -0.75 -0.8 0.3
v -0.35 0.8 -0.1
v -0.35 0.8 -0.4
v -0.35 0.8 -1.1
v -0.35 0.8 -1.4
v -0.35 1 -0.1
v -0.35 1 -0.4
v -0.35 1 -1.1
v -0.35 1 -1.4
v -0.35 1.1 -0.1
v -0.35 1.1 -0.4
v -0.35 1.1 -1.1
v -0.35 1.1 -1.4
v -0.25 0.7 1.5
v -0.25 0.7 1.4
v -0.25 0.8 1.5
v -0.25 0.8 1.4
v -0.25 1.2 1.1
v -0.25 1.2 1
v -0.25 1.4 1.2
v -0.25 1.4 1.1
v -0.25 1.4 1
v -0.25 1.5 1.4
v -0.25 1.5 1.2
v -0.25 1.5 1.1
v -0.25 1.6 1.4
v -0.25 1.6 1.2
v -0.15 0.7 1.6
v -0.15 0.7 1.5
v -0.15 0.7 1.4
v -0.15 0.7 1.2
v -0.15 0.8 1.6
v -0.15 0.8 1.5
v -0.15 0.8 1.4
v -0.15 0.8 1.2
v -0.15 1.3 1
v -0.15 1.3 0.9
v -0.15 1.3 0.7
v -0.15 1.3 0.6
v -0.15 1.4 1
v -0.15 1.4 0.9
v -0.15 1.4 0.7
v -0.15 1.4 0.6
v -0.15 1.5 1
v -0.15 1.5 0.9
v -0.15 1.5 0.7
v -0.15 1.5 0.6
v 0.0500001 0.4 0.8
v 0.0500001 0.4 0.6
v 0.0500001 0.6 0.8
v 0.0500001 0.6 0.6
v 0.0500001 1.3 0.9
v 0.0500001 1.3 0.7
v 0.0500001 1.4 0.9
v 0.0500001 1.4 0.7
v 0.0500001 1.5 0.9
v 0.0500001 1.5 0.7
v 0.0500001 1.6 0.9
v 0.0500001 1.6 0.7
v 0.15 -0.9 0.5
v 0.15 -0.9 0.2
v 0.15 -0.8 0.4
v 0.15 -0.8 0.3
v 0.15 -0.7 0.4
v 0.15 -0.7 0.3
v 0.15 -0.6 0.5
v 0.15 -0.6 0.2
v 0.15 -0.5 0.9
v 0.15 -0.5 0.6
v 0.15 -0.2 0.9
v 0.15 -0.2 0.6
v 0.15 0.7 1.6
v 0.15 0.7 1.5
v 0.15 0.7 1.4
v 0.15 0.7 1.2
v 0.15 0.8 1.6
v 0.15 0.8 1.5
v 0.15 0.8 1.4
v 0.15 0.8 1.2
v 0.15 1.1 -0.6
v 0.15 1.1 -0.9
v 0.15 1.2 1
v 0.15 1.2 0.6
v 0.15 1.2 -0.6
v 0.15 1.2 -0.9
v 0.15 1.3 0.9
v 0.15 1.3 0.7
v 0.15 1.4 1
v 0.15 1.4 0.9
v 0.15 1.4 0.7
v 0.15 1.4 0.6
v 0.15 1.5 1
v 0.15 1.5 0.9
v 0.15 1.5 0.7
v 0.15 1.5 0.6
v 0.25 -1.1 1
v 0.25 -1.1 0.5
v 0.25 -0.8 0.9
v 0.25 -0.8 0.8
v 0.25 -0.7 0.9
v 0.25 -0.7 0.8
v 0.25 -0.5 1
v 0.25 -0.5 0.5
v 0.25 -0.2 1
v 0.25 -0.2 0.5
v 0.25 0.1 0.8
v 0.25 0.1 0.7
v 0.25 0.2 0.8
v 0.25 0.2 0.7
v 0.25 0.4 1
v 0.25 0.4 0.5
v 0.25 0.6 1.2
v 0.25 0.6 0.5
v 0.25 0.7 1.5
v 0.25 0.7 1.4
v 0.25 0.8 1.5
v 0.25 0.8 1.4
v 0.25 0.9 1.1
v 0.25 0.9 0.9
v 0.25 1 -0.5
v 0.25 1 -1
v 0.25 1.1 1.1
v 0.25 1.1 0.9
v 0.25 1.1 -0.5
v 0.25 1.1 -1
v 0.25 1.2 1.2
v 0.25 1.2 1.1
v 0.25 1.2 1
v 0.25 1.2 0.5
v 0.25 1.4 1.2
v 0.25 1.4 1.1
v 0.25 1.4 1
v 0.25 1.5 1.4
v 0.25 1.5 1.2
v 0.25 1.5 1.1
v 0.25 1.6 1.4
v 0.25 1.6 1.2
v 0.35 0.8 -0.4
v 0.35 0.8 -1.1
v 0.35 0.9 1.1
v 0.35 0.9 0.9
v 0.35 1 -0.4
v 0.35 1 -1.1
v 0.35 1.1 1.1
v 0.35 1.1 0.9
v 0.65 0.7 -0.1
v 0.65 0.7 -1.4
v 0.65 0.8 -0.4
v 0.65 0.8 -1.1
v 0.65 1 -0.1
v 0.65 1 -0.4
v 0.65 1 -1.1
v 0.65 1 -1.4
v 0.65 1.1 -0.1
v 0.65 1.1 -0.4
v 0.65 1.1 -1.1
v 0.65 1.1 -1.4
v 0.75 -0.8 0.4
v 0.75 -0.8 0.3
v 0.75 -0.7 0.4
v 0.75 -0.7 0.3
v 0.85 -1.6 0.4
v 0.85 -1.6 0.3
v 0.85 -1 0.2
v 0.85 -1 0.1
v 0.85 -1 -1.6
v 0.85 -1 -1.8
v 0.85 -0.8 0.9
v 0.85 -0.8 0.8
v 0.85 -0.8 0.4
v 0.85 -0.8 0.3
v 0.85 -0.7 0.9
v 0.85 -0.7 0.8
v 0.85 0.1 0.8
v 0.85 0.1 0.7
v 0.85 0.2 0.8
v 0.85 0.2 0.7
v 0.85 0.6 0.2
v 0.85 0.6 0.1
v 0.85 0.6 -1.6
v 0.85 0.6 -1.8
v 0.95 -1.6 0.9
v 0.95 -1.6 0.8
v 0.95 -1.1 0.1
v 0.95 -1.1 -1.6
v 0.95 -0.8 0.9
v 0.95 -0.8 0.8
v 0.95 0.1 1.4
v 0.95 0.1 0.8
v 0.95 0.2 1.4
v 0.95 0.2 0.8
v 0.95 0.7 0.1
v 0.95 0.7 -1.6
v -0.25 0.7 1.6
v -0.25 0.8 1.6
v -0.15 0.7 1.6
v -0.15 0.8 1.6
v 0.0500001 0.7 1.6
v 0.0500001 0.8 1.6
v 0.15 0.7 1.6
v 0.15 0.8 1.6
v -0.35 0.7 1.5
v -0.35 0.8 1.5
v -0.25 0.7 1.5
v -0.25 0.8 1.5
v 0.15 0.7 1.5
v 0.15 0.8 1.5
v 0.25 0.7 1.5
v 0.25 0.8 1.5
v -1.05 0.1 1.4
v -1.05 0.2 1.4
v -0.95 0.1 1.4
v -0.95 0.2 1.4
v -0.35 1.5 1.4
v -0.35 1.6 1.4
v -0.25 0.7 1.4
v -0.25 0.8 1.4
v -0.25 1.5 1.4
v -0.25 1.6 1.4
v -0.15 0.7 1.4
v -0.15 0.8 1.4
v 0.0500001 0.7 1.4
v 0.0500001 0.8 1.4
v 0.15 0.7 1.4
v 0.15 0.8 1.4
v 0.15 1.5 1.4
v 0.15 1.6 1.4
v 0.25 1.5 1.4
v 0.25 1.6 1.4
v 0.85 0.1 1.4
v 0.85 0.2 1.4
v 0.95 0.1 1.4
v 0.95 0.2 1.4
v -0.35 0.6 1.2
v -0.35 1.2 1.2
v -0.35 1.4 1.2
v -0.35 1.5 1.2
v -0.25 0.7 1.2
v -0.25 0.8 1.2
v -0.25 1.4 1.2
v -0.25 1.5 1.2
v -0.15 0.7 1.2
v -0.15 0.8 1.2
v 0.0500001 0.7 1.2
v 0.0500001 0.8 1.2
v 0.15 0.7 1.2
v 0.15 0.8 1.2
v 0.15 1.4 1.2
v 0.15 1.5 1.2
v 0.25 0.6 1.2
v 0.25 1.2 1.2
v 0.25 1.4 1.2
v 0.25 1.5 1.2
v -0.45 0.9 1.1
v -0.45 1.1 1.1
v -0.35 0.9 1.1
v -0.35 1.1 1.1
v -0.35 1.2 1.1
v -0.35 1.4 1.1
v -0.25 1.2 1.1
v -0.25 1.4 1.1
v 0.15 1.2 1.1
v 0.15 1.4 1.1
v 0.25 0.9 1.1
v 0.25 1.1 1.1
v 0.25 1.2 1.1
v 0.25 1.4 1.1
v 0.35 0.9 1.1
v 0.35 1.1 1.1
v -0.35 -1.1 1
v -0.35 -0.5 1
v -0.35 -0.2 1
v -0.35 0.4 1
v -0.25 1.2 1
v -0.25 1.4 1
v -0.25 1.5 1
v -0.15 1.3 1
v -0.15 1.4 1
v -0.15 1.5 1
v 0.0500001 1.3 1
v 0.0500001 1.4 1
v 0.0500001 1.5 1
v 0.15 1.2 1
v 0.15 1.4 1
v 0.15 1.5 1
v 0.25 -1.1 1
v 0.25 -0.5 1
v 0.25 -0.2 1
v 0.25 0.4 1
v -1.05 -1.6 0.9
v -1.05 -0.8 0.9
v -0.95 -1.6 0.9
v -0.95 -0.8 0.9
v -0.95 -0.7 0.9
v -0.35 -0.8 0.9
v -0.35 -0.7 0.9
v -0.25 -0.5 0.9
v -0.25 -0.2 0.9
v -0.15 1.3 0.9
v -0.15 1.4 0.9
v -0.15 1.5 0.9
v -0.15 1.6 0.9
v 0.0500001 1.3 0.9
v 0.0500001 1.4 0.9
v 0.0500001 1.5 0.9
v 0.0500001 1.6 0.9
v 0.15 -0.5 0.9
v 0.15 -0.2 0.9
v 0.25 -0.8 0.9
v 0.25 -0.7 0.9
v 0.85 -1.6 0.9
v 0.85 -0.8 0.9
v 0.85 -0.7 0.9
v 0.95 -1.6 0.9
v 0.95 -0.8 0.9
v -0.95 0.1 0.8
v -0.95 0.2 0.8
v -0.35 0.1 0.8
v -0.35 0.2 0.8
v -0.15 0.4 0.8
v -0.15 0.6 0.8
v 0.0500001 0.4 0.8
v 0.0500001 0.6 0.8
v 0.25 0.1 0.8
v 0.25 0.2 0.8
v 0.85 0.1 0.8
v 0.85 0.2 0.8
v -0.25 1.3 0.7
v -0.25 1.4 0.7
v -0.25 1.5 0.7
v -0.15 1.3 0.7
v -0.15 1.4 0.7
v -0.15 1.5 0.7
v 0.0500001 1.3 0.7
v 0.0500001 1.4 0.7
v 0.0500001 1.5 0.7
v 0.15 1.3 0.7
v 0.15 1.4 0.7
v 0.15 1.5 0.7
v -0.85 -1.6 0.4
v -0.85 -0.8 0.4
v -0.75 -1.6 0.4
v -0.75 -0.8 0.4
v -0.75 -0.7 0.4
v -0.25 -0.8 0.4
v -0.25 -0.7 0.4
v 0.15 -0.8 0.4
v 0.15 -0.7 0.4
v 0.75 -1.6 0.4
v 0.75 -0.8 0.4
v 0.75 -0.7 0.4
v 0.85 -1.6 0.4
v 0.85 -0.8 0.4
v -0.85 -1 0.2
v -0.85 0.6 0.2
v -0.25 -0.9 0.2
v -0.25 -0.6 0.2
v 0.15 -0.9 0.2
v 0.15 -0.6 0.2
v 0.85 -1 0.2
v 0.85 0.6 0.2
v -0.95 -1.1 0.1
v -0.95 0.7 0.1
v -0.85 -1 0.1
v -0.85 0.6 0.1
v 0.85 -1 0.1
v 0.85 0.6 0.1
v 0.95 -1.1 0.1
v 0.95 0.7 0.1
v -0.65 0.7 -0.1
v -0.65 1 -0.1
v -0.65 1.1 -0.1
v -0.35 0.8 -0.1
v -0.35 1 -0.1
v -0.35 1.1 -0.1
v 0.35 0.8 -0.1
v 0.35 1 -0.1
v 0.35 1.1 -0.1
v 0.65 0.7 -0.1
v 0.65 1 -0.1
v 0.65 1.1 -0.1
v -0.35 0.8 -0.4
v -0.35 1 -0.4
v 0.35 0.8 -0.4
v 0.35 1 -0.4
v -0.25 1 -0.5
v -0.25 1.1 -0.5
v 0.25 1 -0.5
v 0.25 1.1 -0.5
v -0.15 1.1 -0.6
v -0.15 1.2 -0.6
v 0.15 1.1 -0.6
v 0.15 1.2 -0.6
v -0.65 0.8 -1.1
v -0.65 1 -1.1
v -0.65 1.1 -1.1
v -0.35 0.8 -1.1
v -0.35 1 -1.1
v -0.35 1.1 -1.1
v 0.35 0.8 -1.1
v 0.35 1 -1.1
v 0.35 1.1 -1.1
v 0.65 0.8 -1.1
v 0.65 1 -1.1
v 0.65 1.1 -1.1
v -0.25 0.7 1.5
v -0.25 0.8 1.5
v -0.15 0.7 1.5
v -0.15 0.8 1.5
v 0.0500001 0.7 1.5
v 0.0500001 0.8 1.5
v 0.15 0.7 1.5
v 0.15 0.8 1.5
v -0.35 0.7 1.4
v -0.35 0.8 1.4
v -0.25 0.7 1.4
v -0.25 0.8 1.4
v 0.15 0.7 1.4
v 0.15 0.8 1.4
v 0.25 0.7 1.4
v 0.25 0.8 1.4
v -0.35 1.5 1.2
v -0.35 1.6 1.2
v -0.25 1.5 1.2
v -0.25 1.6 1.2
v 0.15 1.5 1.2
v 0.15 1.6 1.2
v 0.25 1.5 1.2
v 0.25 1.6 1.2
v -0.35 1.4 1.1
v -0.35 1.5 1.1
v -0.25 1.4 1.1
v -0.25 1.5 1.1
v 0.15 1.4 1.1
v 0.15 1.5 1.1
v 0.25 1.4 1.1
v 0.25 1.5 1.1
v -0.35 1.2 1
v -0.35 1.4 1
v -0.25 1.2 1
v -0.25 1.4 1
v 0.15 1.2 1
v 0.15 1.4 1
v 0.25 1.2 1
v 0.25 1.4 1
v -0.45 0.9 0.9
v -0.45 1.1 0.9
v -0.35 0.9 0.9
v -0.35 1.1 0.9
v -0.25 1.3 0.9
v -0.25 1.4 0.9
v -0.25 1.5 0.9
v -0.15 1.3 0.9
v -0.15 1.4 0.9
v -0.15 1.5 0.9
v 0.0500001 1.3 0.9
v 0.0500001 1.4 0.9
v 0.0500001 1.5 0.9
v 0.15 1.3 0.9
v 0.15 1.4 0.9
v 0.15 1.5 0.9
v 0.25 0.9 0.9
v 0.25 1.1 0.9
v 0.35 0.9 0.9
v 0.35 1.1 0.9
v -1.05 -1.6 0.8
v -1.05 -0.8 0.8
v -1.05 0.1 0.8
v -1.05 0.2 0.8
v -0.95 -1.6 0.8
v -0.95 -0.8 0.8
v -0.95 -0.7 0.8
v -0.95 0.1 0.8
v -0.95 0.2 0.8
v -0.35 -0.8 0.8
v -0.35 -0.7 0.8
v 0.25 -0.8 0.8
v 0.25 -0.7 0.8
v 0.85 -1.6 0.8
v 0.85 -0.8 0.8
v 0.85 -0.7 0.8
v 0.85 0.1 0.8
v 0.85 0.2 0.8
v 0.95 -1.6 0.8
v 0.95 -0.8 0.8
v 0.95 0.1 0.8
v 0.95 0.2 0.8
v -0.95 0.1 0.7
v -0.95 0.2 0.7
v -0.35 0.1 0.7
v -0.35 0.2 0.7
v -0.15 1.3 0.7
v -0.15 1.4 0.7
v -0.15 1.5 0.7
v -0.15 1.6 0.7
v 0.0500001 1.3 0.7
v 0.0500001 1.4 0.7
v 0.0500001 1.5 0.7
v 0.0500001 1.6 0.7
v 0.25 0.1 0.7
v 0.25 0.2 0.7
v 0.85 0.1 0.7
v 0.85 0.2 0.7
v -0.25 -0.5 0.6
v -0.25 -0.2 0.6
v -0.25 1.2 0.6
v -0.25 1.4 0.6
v -0.25 1.5 0.6
v -0.15 0.4 0.6
v -0.15 0.6 0.6
v -0.15 1.3 0.6
v -0.15 1.4 0.6
v -0.15 1.5 0.6
v 0.0500001 0.4 0.6
v 0.0500001 0.6 0.6
v 0.0500001 1.3 0.6
v 0.0500001 1.4 0.6
v 0.0500001 1.5 0.6
v 0.15 -0.5 0.6
v 0.15 -0.2 0.6
v 0.15 1.2 0.6
v 0.15 1.4 0.6
v 0.15 1.5 0.6
v -0.35 -1.1 0.5
v -0.35 -0.5 0.5
v -0.35 -0.2 0.5
v -0.35 0.4 0.5
v -0.35 0.6 0.5
v -0.35 1.2 0.5
v -0.25 -0.9 0.5
v -0.25 -0.6 0.5
v 0.15 -0.9 0.5
v 0.15 -0.6 0.5
v 0.25 -1.1 0.5
v 0.25 -0.5 0.5
v 0.25 -0.2 0.5
v 0.25 0.4 0.5
v 0.25 0.6 0.5
v 0.25 1.2 0.5
v -0.85 -1.6 0.3
v -0.85 -0.8 0.3
v -0.75 -1.6 0.3
v -0.75 -0.8 0.3
v -0.75 -0.7 0.3
v -0.25 -0.8 0.3
v -0.25 -0.7 0.3
v 0.15 -0.8 0.3
v 0.15 -0.7 0.3
v 0.75 -1.6 0.3
v 0.75 -0.8 0.3
v 0.75 -0.7 0.3
v 0.85 -1.6 0.3
v 0.85 -0.8 0.3
v -0.65 0.8 -0.4
v -0.65 1 -0.4
v -0.65 1.1 -0.4
v -0.35 0.8 -0.4
v -0.35 1 -0.4
v -0.35 1.1 -0.4
v 0.35 0.8 -0.4
v 0.35 1 -0.4
v 0.35 1.1 -0.4
v 0.65 0.8 -0.4
v 0.65 1 -0.4
v 0.65 1.1 -0.4
v -0.15 1.1 -0.9
v -0.15 1.2 -0.9
v 0.15 1.1 -0.9
v 0.15 1.2 -0.9
v -0.25 1 -1
v -0.25 1.1 -1
v 0.25 1 -1
v 0.25 1.1 -1
v -0.35 0.8 -1.1
v -0.35 1 -1.1
v 0.35 0.8 -1.1
v 0.35 1 -1.1
v -0.65 0.7 -1.4
v -0.65 1 -1.4
v -0.65 1.1 -1.4
v -0.35 0.8 -1.4
v -0.35 1 -1.4
v -0.35 1.1 -1.4
v 0.35 0.8 -1.4
v 0.35 1 -1.4
v 0.35 1.1 -1.4
v 0.65 0.7 -1.4
v 0.65 1 -1.4
v 0.65 1.1 -1.4
v -0.95 -1.1 -1.6
v -0.95 0.7 -1.6
v -0.85 -1 -1.6
v -0.85 0.6 -1.6
v 0.85 -1 -1.6
v 0.85 0.6 -1.6
v 0.95 -1.1 -1.6
v 0.95 0.7 -1.6
v -0.85 -1 -1.8
v -0.85 0.6 -1.8
v 0.85 -1 -1.8
v 0.85 0.6 -1.8
v -1.05 -1.6 0.9
v -0.95 -1.6 0.9
v 0.85 -1.6 0.9
v 0.95 -1.6 0.9
v -1.05 -1.6 0.8
v -0.95 -1.6 0.8
v 0.85 -1.6 0.8
v 0.95 -1.6 0.8
v -0.85 -1.6 0.4
v -0.75 -1.6 0.4
v 0.75 -1.6 0.4
v 0.85 -1.6 0.4
v -0.85 -1.6 0.3
v -0.75 -1.6 0.3
v 0.75 -1.6 0.3
v 0.85 -1.6 0.3
v -0.35 -1.1 1
v 0.25 -1.1 1
v -0.35 -1.1 0.5
v 0.25 -1.1 0.5
v -0.95 -1.1 0.1
v 0.95 -1.1 0.1
v -0.95 -1.1 -1.6
v 0.95 -1.1 -1.6
v -0.85 -1 0.2
v 0.85 -1 0.2
v -0.85 -1 0.1
v 0.85 -1 0.1
v -0.85 -1 -1.6
v 0.85 -1 -1.6
v -0.85 -1 -1.8
v 0.85 -1 -1.8
v -0.25 -0.9 0.5
v 0.15 -0.9 0.5
v -0.25 -0.9 0.2
v 0.15 -0.9 0.2
v -0.95 -0.8 0.9
v -0.35 -0.8 0.9
v 0.25 -0.8 0.9
v 0.85 -0.8 0.9
v -0.95 -0.8 0.8
v -0.35 -0.8 0.8
v 0.25 -0.8 0.8
v 0.85 -0.8 0.8
v -0.75 -0.8 0.4
v -0.25 -0.8 0.4
v 0.15 -0.8 0.4
v 0.75 -0.8 0.4
v -0.75 -0.8 0.3
v -0.25 -0.8 0.3
v 0.15 -0.8 0.3
v 0.75 -0.8 0.3
v -0.35 -0.2 1
v 0.25 -0.2 1
v -0.25 -0.2 0.9
v 0.15 -0.2 0.9
v -0.25 -0.2 0.6
v 0.15 -0.2 0.6
v -0.35 -0.2 0.5
v 0.25 -0.2 0.5
v -1.05 0.1 1.4
v -0.95 0.1 1.4
v 0.85 0.1 1.4
v 0.95 0.1 1.4
v -1.05 0.1 0.8
v -0.95 0.1 0.8
v -0.35 0.1 0.8
v 0.25 0.1 0.8
v 0.85 0.1 0.8
v 0.95 0.1 0.8
v -0.95 0.1 0.7
v -0.35 0.1 0.7
v 0.25 0.1 0.7
v 0.85 0.1 0.7
v -0.35 0.6 1.2
v 0.25 0.6 1.2
v -0.15 0.6 0.8
v 0.0500001 0.6 0.8
v -0.15 0.6 0.6
v 0.0500001 0.6 0.6
v -0.35 0.6 0.5
v 0.25 0.6 0.5
v -0.25 0.7 1.6
v -0.15 0.7 1.6
v 0.0500001 0.7 1.6
v 0.15 0.7 1.6
v -0.35 0.7 1.5
v -0.25 0.7 1.5
v -0.15 0.7 1.5
v 0.0500001 0.7 1.5
v 0.15 0.7 1.5
v 0.25 0.7 1.5
v -0.35 0.7 1.4
v -0.25 0.7 1.4
v -0.15 0.7 1.4
v 0.0500001 0.7 1.4
v 0.15 0.7 1.4
v 0.25 0.7 1.4
v -0.25 0.7 1.2
v -0.15 0.7 1.2
v 0.0500001 0.7 1.2
v 0.15 0.7 1.2
v -0.45 0.9 1.1
v -0.35 0.9 1.1
v 0.25 0.9 1.1
v 0.35 0.9 1.1
v -0.45 0.9 0.9
v -0.35 0.9 0.9
v 0.25 0.9 0.9
v 0.35 0.9 0.9
v -0.35 1.4 1.2
v -0.25 1.4 1.2
v 0.15 1.4 1.2
v 0.25 1.4 1.2
v -0.35 1.4 1.1
v -0.25 1.4 1.1
v 0.15 1.4 1.1
v 0.25 1.4 1.1
v -0.35 1.5 1.4
v -0.25 1.5 1.4
v 0.15 1.5 1.4
v 0.25 1.5 1.4
v -0.35 1.5 1.2
v -0.25 1.5 1.2
v 0.15 1.5 1.2
v 0.25 1.5 1.2
v -1.05 -0.8 0.9
v -0.95 -0.8 0.9
v 0.85 -0.8 0.9
v 0.95 -0.8 0.9
v -1.05 -0.8 0.8
v -0.95 -0.8 0.8
v 0.85 -0.8 0.8
v 0.95 -0.8 0.8
v -0.85 -0.8 0.4
v -0.75 -0.8 0.4
v 0.75 -0.8 0.4
v 0.85 -0.8 0.4
v -0.85 -0.8 0.3
v -0.75 -0.8 0.3
v 0.75 -0.8 0.3
v 0.85 -0.8 0.3
v -0.95 -0.7 0.9
v -0.35 -0.7 0.9
v 0.25 -0.7 0.9
v 0.85 -0.7 0.9
v -0.95 -0.7 0.8
v -0.35 -0.7 0.8
v 0.25 -0.7 0.8
v 0.85 -0.7 0.8
v -0.75 -0.7 0.4
v -0.25 -0.7 0.4
v 0.15 -0.7 0.4
v 0.75 -0.7 0.4
v -0.75 -0.7 0.3
v -0.25 -0.7 0.3
v 0.15 -0.7 0.3
v 0.75 -0.7 0.3
v -0.25 -0.6 0.5
v 0.15 -0.6 0.5
v -0.25 -0.6 0.2
v 0.15 -0.6 0.2
v -0.35 -0.5 1
v 0.25 -0.5 1
v -0.25 -0.5 0.9
v 0.15 -0.5 0.9
v -0.25 -0.5 0.6
v 0.15 -0.5 0.6
v -0.35 -0.5 0.5
v 0.25 -0.5 0.5
v -1.05 0.2 1.4
v -0.95 0.2 1.4
v 0.85 0.2 1.4
v 0.95 0.2 1.4
v -1.05 0.2 0.8
v -0.95 0.2 0.8
v -0.35 0.2 0.8
v 0.25 0.2 0.8
v 0.85 0.2 0.8
v 0.95 0.2 0.8
v -0.95 0.2 0.7
v -0.35 0.2 0.7
v 0.25 0.2 0.7
v 0.85 0.2 0.7
v -0.35 0.4 1
v 0.25 0.4 1
v -0.15 0.4 0.8
v 0.0500001 0.4 0.8
v -0.15 0.4 0.6
v 0.0500001 0.4 0.6
v -0.35 0.4 0.5
v 0.25 0.4 0.5
v -0.85 0.6 0.2
v 0.85 0.6 0.2
v -0.85 0.6 0.1
v 0.85 0.6 0.1
v -0.85 0.6 -1.6
v 0.85 0.6 -1.6
v -0.85 0.6 -1.8
v 0.85 0.6 -1.8
v -0.95 0.7 0.1
v 0.95 0.7 0.1
v -0.65 0.7 -0.1
v 0.65 0.7 -0.1
v -0.65 0.7 -1.4
v 0.65 0.7 -1.4
v -0.95 0.7 -1.6
v 0.95 0.7 -1.6
v -0.25 0.8 1.6
v -0.15 0.8 1.6
v 0.0500001 0.8 1.6
v 0.15 0.8 1.6
v -0.35 0.8 1.5
v -0.25 0.8 1.5
v -0.15 0.8 1.5
v 0.0500001 0.8 1.5
v 0.15 0.8 1.5
v 0.25 0.8 1.5
v -0.35 0.8 1.4
v -0.25 0.8 1.4
v -0.15 0.8 1.4
v 0.0500001 0.8 1.4
v 0.15 0.8 1.4
v 0.25 0.8 1.4
v -0.25 0.8 1.2
v -0.15 0.8 1.2
v 0.0500001 0.8 1.2
v 0.15 0.8 1.2
v -0.35 0.8 -0.1
v 0.35 0.8 -0.1
v -0.65 0.8 -0.4
v -0.35 0.8 -0.4
v 0.35 0.8 -0.4
v 0.65 0.8 -0.4
v -0.65 0.8 -1.1
v -0.35 0.8 -1.1
v 0.35 0.8 -1.1
v 0.65 0.8 -1.1
v -0.35 0.8 -1.4
v 0.35 0.8 -1.4
v -0.35 1 -0.4
v 0.35 1 -0.4
v -0.25 1 -0.5
v 0.25 1 -0.5
v -0.25 1 -1
v 0.25 1 -1
v -0.35 1 -1.1
v 0.35 1 -1.1
v -0.45 1.1 1.1
v -0.35 1.1 1.1
v 0.25 1.1 1.1
v 0.35 1.1 1.1
v -0.45 1.1 0.9
v -0.35 1.1 0.9
v 0.25 1.1 0.9
v 0.35 1.1 0.9
v -0.65 1.1 -0.1
v -0.35 1.1 -0.1
v 0.35 1.1 -0.1
v 0.65 1.1 -0.1
v -0.65 1.1 -0.4
v -0.35 1.1 -0.4
v 0.35 1.1 -0.4
v 0.65 1.1 -0.4
v -0.25 1.1 -0.5
v 0.25 1.1 -0.5
v -0.15 1.1 -0.6
v 0.15 1.1 -0.6
v -0.15 1.1 -0.9
v 0.15 1.1 -0.9
v -0.25 1.1 -1
v 0.25 1.1 -1
v -0.65 1.1 -1.1
v -0.35 1.1 -1.1
v 0.35 1.1 -1.1
v 0.65 1.1 -1.1
v -0.65 1.1 -1.4
v -0.35 1.1 -1.4
v 0.35 1.1 -1.4
v 0.65 1.1 -1.4
v -0.35 1.2 1.2
v 0.25 1.2 1.2
v -0.35 1.2 1.1
v -0.25 1.2 1.1
v 0.15 1.2 1.1
v 0.25 1.2 1.1
v -0.35 1.2 1
v -0.25 1.2 1
v 0.15 1.2 1
v 0.25 1.2 1
v -0.25 1.2 0.6
v 0.15 1.2 0.6
v -0.35 1.2 0.5
v 0.25 1.2 0.5
v -0.15 1.2 -0.6
v 0.15 1.2 -0.6
v -0.15 1.2 -0.9
v 0.15 1.2 -0.9
v -0.15 1.3 1
v 0.0500001 1.3 1
v -0.25 1.3 0.9
v -0.15 1.3 0.9
v 0.0500001 1.3 0.9
v 0.15 1.3 0.9
v -0.25 1.3 0.7
v -0.15 1.3 0.7
v 0.0500001 1.3 0.7
v 0.15 1.3 0.7
v -0.15 1.3 0.6
v 0.0500001 1.3 0.6
v -0.35 1.4 1.1
v -0.25 1.4 1.1
v 0.15 1.4 1.1
v 0.25 1.4 1.1
v -0.35 1.4 1
v -0.25 1.4 1
v 0.15 1.4 1
v 0.25 1.4 1
v -0.35 1.5 1.2
v -0.25 1.5 1.2
v 0.15 1.5 1.2
v 0.25 1.5 1.2
v -0.35 1.5 1.1
v -0.25 1.5 1.1
v 0.15 1.5 1.1
v 0.25 1.5 1.1
v -0.25 1.5 1
v -0.15 1.5 1
v 0.0500001 1.5 1
v 0.15 1.5 1
v -0.25 1.5 0.9
v -0.15 1.5 0.9
v 0.0500001 1.5 0.9
v 0.15 1.5 0.9
v -0.25 1.5 0.7
v -0.15 1.5 0.7
v 0.0500001 1.5 0.7
v 0.15 1.5 0.7
v -0.25 1.5 0.6
v -0.15 1.5 0.6
v 0.0500001 1.5 0.6
v 0.15 1.5 0.6
v -0.35 1.6 1.4
v -0.25 1.6 1.4
v 0.15 1.6 1.4
v 0.25 1.6 1.4
v -0.35 1.6 1.2
v -0.25 1.6 1.2
v 0.15 1.6 1.2
v 0.25 1.6 1.2
v -0.15 1.6 0.9
v 0.0500001 1.6 0.9
v -0.15 1.6 0.7
v 0.0500001 1.6 0.7

# faces
f 3/5/1 2/5/1 1/5/1
f 4/5/1 2/5/1 3/5/1
f 7/5/1 6/5/1 5/5/1
f 8/5/1 6/5/1 7/5/1
f 13/5/1 12/5/1 11/5/1
f 14/5/1 12/5/1 13/5/1
f 17/5/1 16/5/1 15/5/1
f 18/5/1 16/5/1 17/5/1
f 19/5/1 10/5/1 9/5/1
f 20/5/1 10/5/1 19/5/1
f 27/5/1 22/5/1 21/5/1
f 28/5/1 22/5/1 27/5/1
f 29/5/1 24/5/1 23/5/1
f 30/5/1 24/5/1 29/5/1
f 31/5/1 26/5/1 25/5/1
f 32/5/1 26/5/1 31/5/1
f 35/5/1 34/5/1 33/5/1
f 36/5/1 34/5/1 35/5/1
f 39/1/1 38/1/1 37/1/1
f 40/1/1 38/1/1 39/1/1
f 41/1/1 39/1/1 37/1/1
f 42/1/1 39/1/1 41/1/1
f 43/1/1 38/1/1 40/1/1
f 44/1/1 38/1/1 43/1/1
f 45/2/1 42/2/1 41/2/1
f 46/2/1 42/2/1 45/2/1
f 47/2/1 44/2/1 43/2/1
f 48/2/1 44/2/1 47/2/1
f 51/4/1 50/4/1 49/4/1
f 52/4/1 50/4/1 51/4/1
f 55/5/1 54/5/1 53/5/1
f 56/5/1 54/5/1 55/5/1
f 57/5/1 55/5/1 53/5/1
f 58/5/1 54/5/1 56/5/1
f 59/5/1 57/5/1 53/5/1
f 59/5/1 58/5/1 57/5/1
f 60/5/1 54/5/1 58/5/1
f 60/5/1 58/5/1 59/5/1
f 63/5/1 62/5/1 61/5/1
f 64/5/1 62/5/1 63/5/1
f 65/5/1 63/5/1 61/5/1
f 66/5/1 62/5/1 64/5/1
f 67/5/1 65/5/1 61/5/1
f 67/5/1 66/5/1 65/5/1
f 68/5/1 62/5/1 66/5/1
f 68/5/1 66/5/1 67/5/1
f 73/5/1 72/5/1 71/5/1
f 74/5/1 72/5/1 73/5/1
f 77/5/1 70/5/1 69/5/1
f 78/5/1 70/5/1 77/5/1
f 79/3/1 76/3/1 75/3/1
f 80/3/1 76/3/1 79/3/1
f 81/5/1 77/5/1 69/5/1
f 82/5/1 70/5/1 78/5/1
f 83/5/1 81/5/1 69/5/1
f 83/5/1 82/5/1 81/5/1
f 84/5/1 82/5/1 83/5/1
f 85/5/1 82/5/1 84/5/1
f 86/5/1 70/5/1 82/5/1
f 86/5/1 82/5/1 85/5/1
f 88/5/1 85/5/1 84/5/1
f 89/5/1 85/5/1 88/5/1
f 91/5/1 88/5/1 87/5/1
f 92/5/1 88/5/1 91/5/1
f 93/5/1 91/5/1 90/5/1
f 94/5/1 91/5/1 93/5/1
f 97/5/1 96/5/1 95/5/1
f 98/5/1 96/5/1 97/5/1
f 99/5/1 97/5/1 95/5/1
f 100/5/1 96/5/1 98/5/1
f 101/5/1 99/5/1 95/5/1
f 101/5/1 100/5/1 99/5/1
f 102/5/1 96/5/1 100/5/1
f 102/5/1 100/5/1 101/5/1
f 105/5/1 104/5/1 103/5/1
f 106/5/1 104/5/1 105/5/1
f 111/5/1 108/5/1 107/5/1
f 112/5/1 108/5/1 111/5/1
f 113/5/1 110/5/1 109/5/1
f 114/5/1 110/5/1 113/5/1
f 117/3/1 116/3/1 115/3/1
f 118/3/1 116/3/1 117/3/1
f 121/1/1 120/1/1 119/1/1
f 122/1/1 120/1/1 121/1/1
f 123/1/1 121/1/1 119/1/1
f 124/1/1 121/1/1 123/1/1
f 125/1/1 120/1/1 122/1/1
f 126/1/1 120/1/1 125/1/1
f 127/2/1 124/2/1 123/2/1
f 128/2/1 124/2/1 127/2/1
f 129/2/1 126/2/1 125/2/1
f 130/2/1 126/2/1 129/2/1
f 133/5/1 132/5/1 131/5/1
f 134/5/1 132/5/1 133/5/1
f 137/3/1 136/3/1 135/3/1
f 138/3/1 136/3/1 137/3/1
f 141/3/1 140/3/1 139/3/1
f 142/3/1 140/3/1 141/3/1
f 143/3/1 142/3/1 141/3/1
f 144/3/1 142/3/1 143/3/1
f 145/3/1 144/3/1 143/3/1
f 146/3/1 144/3/1 145/3/1
f 151/5/1 148/5/1 147/5/1
f 152/5/1 148/5/1 151/5/1
f 153/5/1 150/5/1 149/5/1
f 154/5/1 150/5/1 153/5/1
f 159/1/1 156/1/1 155/1/1
f 160/1/1 156/1/1 159/1/1
f 161/1/1 158/1/1 157/1/1
f 162/1/1 158/1/1 161/1/1
f 163/2/1 160/2/1 159/2/1
f 164/2/1 160/2/1 163/2/1
f 165/2/1 162/2/1 161/2/1
f 166/2/1 162/2/1 165/2/1
f 169/5/1 168/5/1 167/5/1
f 170/5/1 168/5/1 169/5/1
f 174/5/1 172/5/1 171/5/1
f 175/5/1 172/5/1 174/5/1
f 177/5/1 174/5/1 173/5/1
f 178/5/1 174/5/1 177/5/1
f 179/5/1 177/5/1 176/5/1
f 180/5/1 177/5/1 179/5/1
f 185/1/1 182/1/1 181/1/1
f 186/1/1 182/1/1 185/1/1
f 187/1/1 184/1/1 183/1/1
f 188/1/1 184/1/1 187/1/1
f 189/2/1 186/2/1 185/2/1
f 190/2/1 186/2/1 189/2/1
f 191/2/1 188/2/1 187/2/1
f 192/2/1 188/2/1 191/2/1
f 195/5/1 194/5/1 193/5/1
f 196/5/1 194/5/1 195/5/1
f 199/5/1 198/5/1 197/5/1
f 200/5/1 198/5/1 199/5/1
f 203/5/1 202/5/1 201/5/1
f 204/5/1 202/5/1 203/5/1
f 205/5/2 206/5/2 207/5/2
f 207/5/2 206/5/2 208/5/2
f 209/5/2 210/5/2 211/5/2
f 211/5/2 210/5/2 212/5/2
f 213/5/2 214/5/2 215/5/2
f 215/5/2 214/5/2 216/5/2
f 217/1/2 218/1/2 221/1/2
f 221/1/2 218/1/2 222/1/2
f 219/1/2 220/1/2 223/1/2
f 223/1/2 220/1/2 224/1/2
f 221/2/2 222/2/2 225/2/2
f 225/2/2 222/2/2 226/2/2
f 223/2/2 224/2/2 227/2/2
f 227/2/2 224/2/2 228/2/2
f 229/5/2 230/5/2 231/5/2
f 231/5/2 230/5/2 232/5/2
f 233/5/2 234/5/2 236/5/2
f 236/5/2 234/5/2 237/5/2
f 235/5/2 236/5/2 239/5/2
f 239/5/2 236/5/2 240/5/2
f 238/5/2 239/5/2 241/5/2
f 241/5/2 239/5/2 242/5/2
f 243/5/2 244/5/2 247/5/2
f 247/5/2 244/5/2 248/5/2
f 245/5/2 246/5/2 249/5/2
f 249/5/2 246/5/2 250/5/2
f 251/1/2 252/1/2 255/1/2
f 255/1/2 252/1/2 256/1/2
f 253/1/2 254/1/2 257/1/2
f 257/1/2 254/1/2 258/1/2
f 255/2/2 256/2/2 259/2/2
f 259/2/2 256/2/2 260/2/2
f 257/2/2 258/2/2 261/2/2
f 261/2/2 258/2/2 262/2/2
f 263/5/2 264/5/2 265/5/2
f 265/5/2 264/5/2 266/5/2
f 267/3/2 268/3/2 269/3/2
f 269/3/2 268/3/2 270/3/2
f 269/3/2 270/3/2 271/3/2
f 271/3/2 270/3/2 272/3/2
f 271/3/2 272/3/2 273/3/2
f 273/3/2 272/3/2 274/3/2
f 275/5/2 276/5/2 277/5/2
f 277/5/2 276/5/2 278/5/2
f 275/5/2 277/5/2 279/5/2
f 278/5/2 276/5/2 280/5/2
f 275/5/2 279/5/2 281/5/2
f 279/5/2 280/5/2 281/5/2
f 280/5/2 276/5/2 282/5/2
f 281/5/2 280/5/2 282/5/2
f 283/5/2 284/5/2 285/5/2
f 285/5/2 284/5/2 286/5/2
f 287/5/2 288/5/2 291/5/2
f 291/5/2 288/5/2 292/5/2
f 289/5/2 290/5/2 293/5/2
f 293/5/2 290/5/2 294/5/2
f 295/3/2 296/3/2 299/3/2
f 299/3/2 296/3/2 300/3/2
f 297/1/2 298/1/2 301/1/2
f 301/1/2 298/1/2 302/1/2
f 297/1/2 301/1/2 303/1/2
f 303/1/2 301/1/2 304/1/2
f 302/1/2 298/1/2 305/1/2
f 305/1/2 298/1/2 306/1/2
f 303/2/2 304/2/2 307/2/2
f 307/2/2 304/2/2 308/2/2
f 305/2/2 306/2/2 309/2/2
f 309/2/2 306/2/2 310/2/2
f 311/5/2 312/5/2 313/5/2
f 313/5/2 312/5/2 314/5/2
f 311/5/2 313/5/2 315/5/2
f 314/5/2 312/5/2 316/5/2
f 311/5/2 315/5/2 317/5/2
f 315/5/2 316/5/2 317/5/2
f 316/5/2 312/5/2 318/5/2
f 317/5/2 316/5/2 318/5/2
f 319/5/2 320/5/2 321/5/2
f 321/5/2 320/5/2 322/5/2
f 319/5/2 321/5/2 323/5/2
f 322/5/2 320/5/2 324/5/2
f 319/5/2 323/5/2 325/5/2
f 323/5/2 324/5/2 325/5/2
f 324/5/2 320/5/2 326/5/2
f 325/5/2 324/5/2 326/5/2
f 329/5/2 330/5/2 331/5/2
f 331/5/2 330/5/2 332/5/2
f 327/5/2 328/5/2 333/5/2
f 333/5/2 328/5/2 334/5/2
f 327/5/2 333/5/2 337/5/2
f 334/5/2 328/5/2 338/5/2
f 335/3/2 336/3/2 339/3/2
f 339/3/2 336/3/2 340/3/2
f 327/5/2 337/5/2 341/5/2
f 337/5/2 338/5/2 341/5/2
f 341/5/2 338/5/2 342/5/2
f 342/5/2 338/5/2 343/5/2
f 338/5/2 328/5/2 344/5/2
f 343/5/2 338/5/2 344/5/2
f 342/5/2 343/5/2 346/5/2
f 346/5/2 343/5/2 347/5/2
f 345/5/2 346/5/2 349/5/2
f 349/5/2 346/5/2 350/5/2
f 348/5/2 349/5/2 351/5/2
f 351/5/2 349/5/2 352/5/2
f 353/3/2 354/3/2 357/3/2
f 357/3/2 354/3/2 358/3/2
f 355/4/2 356/4/2 359/4/2
f 359/4/2 356/4/2 360/4/2
f 361/1/2 362/1/2 363/1/2
f 363/1/2 362/1/2 364/1/2
f 361/1/2 363/1/2 365/1/2
f 365/1/2 363/1/2 366/1/2
f 364/1/2 362/1/2 367/1/2
f 367/1/2 362/1/2 368/1/2
f 365/2/2 366/2/2 369/2/2
f 369/2/2 366/2/2 370/2/2
f 367/2/2 368/2/2 371/2/2
f 371/2/2 368/2/2 372/2/2
f 373/5/2 374/5/2 375/5/2
f 375/5/2 374/5/2 376/5/2
f 377/5/2 378/5/2 385/5/2
f 385/5/2 378/5/2 386/5/2
f 383/5/2 384/5/2 387/5/2
f 387/5/2 384/5/2 388/5/2
f 389/5/2 390/5/2 391/5/2
f 391/5/2 390/5/2 392/5/2
f 379/5/2 380/5/2 393/5/2
f 393/5/2 380/5/2 394/5/2
f 381/5/2 382/5/2 395/5/2
f 395/5/2 382/5/2 396/5/2
f 397/5/2 398/5/2 401/5/2
f 401/5/2 398/5/2 402/5/2
f 403/5/2 404/5/2 405/5/2
f 405/5/2 404/5/2 406/5/2
f 399/5/2 400/5/2 407/5/2
f 407/5/2 400/5/2 408/5/2
f 411/5/3 410/5/3 409/5/3
f 412/5/3 410/5/3 411/5/3
f 415/5/3 414/5/3 413/5/3
f 416/5/3 414/5/3 415/5/3
f 419/5/3 418/5/3 417/5/3
f 420/5/3 418/5/3 419/5/3
f 423/5/3 422/5/3 421/5/3
f 424/5/3 422/5/3 423/5/3
f 427/5/3 426/5/3 425/5/3
f 428/5/3 426/5/3 427/5/3
f 433/5/3 430/5/3 429/5/3
f 434/5/3 430/5/3 433/5/3
f 435/5/3 432/5/3 431/5/3
f 436/5/3 432/5/3 435/5/3
f 439/5/3 438/5/3 437/5/3
f 440/5/3 438/5/3 439/5/3
f 443/5/3 442/5/3 441/5/3
f 444/5/3 442/5/3 443/5/3
f 447/5/3 446/5/3 445/5/3
f 448/5/3 446/5/3 447/5/3
f 453/5/3 450/5/3 449/5/3
f 454/5/3 450/5/3 453/5/3
f 455/5/3 452/5/3 451/5/3
f 456/5/3 452/5/3 455/5/3
f 457/5/3 453/5/3 449/5/3
f 458/5/3 450/5/3 454/5/3
f 459/5/3 457/5/3 449/5/3
f 459/5/3 458/5/3 457/5/3
f 460/5/3 450/5/3 458/5/3
f 460/5/3 458/5/3 459/5/3
f 461/5/3 459/5/3 449/5/3
f 462/5/3 450/5/3 460/5/3
f 465/5/3 461/5/3 449/5/3
f 465/5/3 462/5/3 461/5/3
f 466/5/3 450/5/3 462/5/3
f 466/5/3 462/5/3 465/5/3
f 467/5/3 464/5/3 463/5/3
f 468/5/3 464/5/3 467/5/3
f 471/4/3 470/4/3 469/4/3
f 472/4/3 470/4/3 471/4/3
f 475/5/3 474/5/3 473/5/3
f 476/5/3 474/5/3 475/5/3
f 481/5/3 478/5/3 477/5/3
f 482/5/3 478/5/3 481/5/3
f 483/4/3 480/4/3 479/4/3
f 484/4/3 480/4/3 483/4/3
f 492/1/3 490/1/3 489/1/3
f 493/2/3 491/2/3 490/2/3
f 493/1/3 490/1/3 492/1/3
f 494/2/3 491/2/3 493/2/3
f 495/1/3 492/1/3 489/1/3
f 498/1/3 495/1/3 489/1/3
f 498/1/3 496/1/3 495/1/3
f 499/2/3 497/2/3 496/2/3
f 499/1/3 496/1/3 498/1/3
f 500/2/3 497/2/3 499/2/3
f 501/5/3 486/5/3 485/5/3
f 502/5/3 486/5/3 501/5/3
f 503/5/3 488/5/3 487/5/3
f 504/5/3 488/5/3 503/5/3
f 507/5/3 506/5/3 505/5/3
f 508/5/3 506/5/3 507/5/3
f 510/5/3 509/5/3 508/5/3
f 511/5/3 509/5/3 510/5/3
f 518/3/3 515/3/3 514/3/3
f 518/3/3 517/3/3 516/3/3
f 518/3/3 516/3/3 515/3/3
f 519/3/3 517/3/3 518/3/3
f 520/3/3 517/3/3 519/3/3
f 521/3/3 517/3/3 520/3/3
f 522/5/3 513/5/3 512/5/3
f 523/5/3 513/5/3 522/5/3
f 527/5/3 525/5/3 524/5/3
f 528/5/3 525/5/3 527/5/3
f 529/5/3 527/5/3 526/5/3
f 530/5/3 527/5/3 529/5/3
f 533/5/3 532/5/3 531/5/3
f 534/5/3 532/5/3 533/5/3
f 537/5/3 536/5/3 535/5/3
f 538/5/3 536/5/3 537/5/3
f 541/5/3 540/5/3 539/5/3
f 542/5/3 540/5/3 541/5/3
f 546/1/3 544/1/3 543/1/3
f 547/2/3 545/2/3 544/2/3
f 547/1/3 544/1/3 546/1/3
f 548/2/3 545/2/3 547/2/3
f 552/1/3 550/1/3 549/1/3
f 553/2/3 551/2/3 550/2/3
f 553/1/3 550/1/3 552/1/3
f 554/2/3 551/2/3 553/2/3
f 557/5/3 556/5/3 555/5/3
f 558/5/3 556/5/3 557/5/3
f 560/5/3 559/5/3 558/5/3
f 561/5/3 559/5/3 560/5/3
f 565/5/3 563/5/3 562/5/3
f 566/5/3 563/5/3 565/5/3
f 567/5/3 565/5/3 564/5/3
f 568/5/3 565/5/3 567/5/3
f 571/5/3 570/5/3 569/5/3
f 572/5/3 570/5/3 571/5/3
f 573/5/3 571/5/3 569/5/3
f 574/5/3 570/5/3 572/5/3
f 575/5/3 573/5/3 569/5/3
f 575/5/3 574/5/3 573/5/3
f 576/5/3 570/5/3 574/5/3
f 576/5/3 574/5/3 575/5/3
f 579/5/3 578/5/3 577/5/3
f 580/5/3 578/5/3 579/5/3
f 581/5/3 579/5/3 577/5/3
f 582/5/3 578/5/3 580/5/3
f 583/5/3 581/5/3 577/5/3
f 583/5/3 582/5/3 581/5/3
f 584/5/3 578/5/3 582/5/3
f 584/5/3 582/5/3 583/5/3
f 588/1/3 586/1/3 585/1/3
f 589/2/3 587/2/3 586/2/3
f 589/1/3 586/1/3 588/1/3
f 590/2/3 587/2/3 589/2/3
f 591/1/3 588/1/3 585/1/3
f 594/1/3 591/1/3 585/1/3
f 594/1/3 592/1/3 591/1/3
f 595/2/3 593/2/3 592/2/3
f 595/1/3 592/1/3 594/1/3
f 596/2/3 593/2/3 595/2/3
f 599/3/3 598/3/3 597/3/3
f 600/3/3 598/3/3 599/3/3
f 603/3/3 602/3/3 601/3/3
f 604/3/3 602/3/3 603/3/3
f 607/3/3 606/3/3 605/3/3
f 608/3/3 606/3/3 607/3/3
f 612/1/3 610/1/3 609/1/3
f 613/2/3 611/2/3 610/2/3
f 613/1/3 610/1/3 612/1/3
f 614/2/3 611/2/3 613/2/3
f 618/1/3 616/1/3 615/1/3
f 619/2/3 617/2/3 616/2/3
f 619/1/3 616/1/3 618/1/3
f 620/2/3 617/2/3 619/2/3
f 621/5/4 622/5/4 623/5/4
f 623/5/4 622/5/4 624/5/4
f 625/5/4 626/5/4 627/5/4
f 627/5/4 626/5/4 628/5/4
f 629/5/4 630/5/4 631/5/4
f 631/5/4 630/5/4 632/5/4
f 633/5/4 634/5/4 635/5/4
f 635/5/4 634/5/4 636/5/4
f 637/5/4 638/5/4 639/5/4
f 639/5/4 638/5/4 640/5/4
f 641/5/4 642/5/4 643/5/4
f 643/5/4 642/5/4 644/5/4
f 645/5/4 646/5/4 647/5/4
f 647/5/4 646/5/4 648/5/4
f 649/5/4 650/5/4 651/5/4
f 651/5/4 650/5/4 652/5/4
f 653/5/4 654/5/4 655/5/4
f 655/5/4 654/5/4 656/5/4
f 657/5/4 658/5/4 659/5/4
f 659/5/4 658/5/4 660/5/4
f 661/4/4 662/4/4 663/4/4
f 663/4/4 662/4/4 664/4/4
f 665/1/4 666/1/4 668/1/4
f 666/2/4 667/2/4 669/2/4
f 668/1/4 666/1/4 669/1/4
f 669/2/4 667/2/4 670/2/4
f 671/1/4 672/1/4 674/1/4
f 672/2/4 673/2/4 675/2/4
f 674/1/4 672/1/4 675/1/4
f 675/2/4 673/2/4 676/2/4
f 677/4/4 678/4/4 679/4/4
f 679/4/4 678/4/4 680/4/4
f 681/5/4 682/5/4 685/5/4
f 685/5/4 682/5/4 686/5/4
f 683/5/4 684/5/4 688/5/4
f 688/5/4 684/5/4 689/5/4
f 686/5/4 687/5/4 690/5/4
f 690/5/4 687/5/4 691/5/4
f 692/5/4 693/5/4 695/5/4
f 695/5/4 693/5/4 696/5/4
f 694/5/4 695/5/4 699/5/4
f 699/5/4 695/5/4 700/5/4
f 697/5/4 698/5/4 701/5/4
f 701/5/4 698/5/4 702/5/4
f 703/5/4 704/5/4 705/5/4
f 705/5/4 704/5/4 706/5/4
f 707/3/4 708/3/4 711/3/4
f 709/3/4 710/3/4 711/3/4
f 708/3/4 709/3/4 711/3/4
f 711/3/4 710/3/4 712/3/4
f 712/3/4 710/3/4 713/3/4
f 713/3/4 710/3/4 714/3/4
f 715/5/4 716/5/4 717/5/4
f 717/5/4 716/5/4 718/5/4
f 721/1/4 722/1/4 726/1/4
f 722/2/4 723/2/4 727/2/4
f 726/1/4 722/1/4 727/1/4
f 727/2/4 723/2/4 728/2/4
f 724/5/4 725/5/4 729/5/4
f 729/5/4 725/5/4 730/5/4
f 721/1/4 726/1/4 731/1/4
f 719/5/4 720/5/4 734/5/4
f 734/5/4 720/5/4 735/5/4
f 731/1/4 732/1/4 736/1/4
f 721/1/4 731/1/4 736/1/4
f 732/2/4 733/2/4 737/2/4
f 736/1/4 732/1/4 737/1/4
f 737/2/4 733/2/4 738/2/4
f 739/5/4 740/5/4 745/5/4
f 745/5/4 740/5/4 746/5/4
f 739/5/4 745/5/4 747/5/4
f 746/5/4 740/5/4 748/5/4
f 739/5/4 747/5/4 749/5/4
f 747/5/4 748/5/4 749/5/4
f 748/5/4 740/5/4 750/5/4
f 749/5/4 748/5/4 750/5/4
f 741/5/4 742/5/4 751/5/4
f 751/5/4 742/5/4 752/5/4
f 743/5/4 744/5/4 753/5/4
f 753/5/4 744/5/4 754/5/4
f 755/5/4 756/5/4 757/5/4
f 757/5/4 756/5/4 758/5/4
f 758/5/4 759/5/4 760/5/4
f 760/5/4 759/5/4 761/5/4
f 762/5/4 763/5/4 765/5/4
f 765/5/4 763/5/4 766/5/4
f 764/5/4 765/5/4 767/5/4
f 767/5/4 765/5/4 768/5/4
f 769/1/4 770/1/4 772/1/4
f 770/2/4 771/2/4 773/2/4
f 772/1/4 770/1/4 773/1/4
f 773/2/4 771/2/4 774/2/4
f 775/1/4 776/1/4 778/1/4
f 776/2/4 777/2/4 779/2/4
f 778/1/4 776/1/4 779/1/4
f 779/2/4 777/2/4 780/2/4
f 781/3/4 782/3/4 783/3/4
f 783/3/4 782/3/4 784/3/4
f 785/3/4 786/3/4 787/3/4
f 787/3/4 786/3/4 788/3/4
f 789/3/4 790/3/4 791/3/4
f 791/3/4 790/3/4 792/3/4
f 793/1/4 794/1/4 796/1/4
f 794/2/4 795/2/4 797/2/4
f 796/1/4 794/1/4 797/1/4
f 797/2/4 795/2/4 798/2/4
f 793/1/4 796/1/4 799/1/4
f 793/1/4 799/1/4 802/1/4
f 799/1/4 800/1/4 802/1/4
f 800/2/4 801/2/4 803/2/4
f 802/1/4 800/1/4 803/1/4
f 803/2/4 801/2/4 804/2/4
f 805/5/4 806/5/4 807/5/4
f 807/5/4 806/5/4 808/5/4
f 805/5/4 807/5/4 809/5/4
f 808/5/4 806/5/4 810/5/4
f 805/5/4 809/5/4 811/5/4
f 809/5/4 810/5/4 811/5/4
f 810/5/4 806/5/4 812/5/4
f 811/5/4 810/5/4 812/5/4
f 813/5/4 814/5/4 815/5/4
f 815/5/4 814/5/4 816/5/4
f 821/5/5 818/5/5 817/5/5
f 822/5/5 818/5/5 821/5/5
f 823/5/5 820/5/5 819/5/5
f 824/5/5 820/5/5 823/5/5
f 829/5/5 826/5/5 825/5/5
f 830/5/5 826/5/5 829/5/5
f 831/5/5 828/5/5 827/5/5
f 832/5/5 828/5/5 831/5/5
f 835/5/5 834/5/5 833/5/5
f 836/5/5 834/5/5 835/5/5
f 839/5/5 838/5/5 837/5/5
f 840/5/5 838/5/5 839/5/5
f 843/5/5 842/5/5 841/5/5
f 844/5/5 842/5/5 843/5/5
f 847/5/5 846/5/5 845/5/5
f 848/5/5 846/5/5 847/5/5
f 851/5/5 850/5/5 849/5/5
f 852/5/5 850/5/5 851/5/5
f 857/5/5 854/5/5 853/5/5
f 858/5/5 854/5/5 857/5/5
f 859/5/5 856/5/5 855/5/5
f 860/5/5 856/5/5 859/5/5
f 865/5/5 862/5/5 861/5/5
f 866/5/5 862/5/5 865/5/5
f 867/5/5 864/5/5 863/5/5
f 868/5/5 864/5/5 867/5/5
f 871/5/5 870/5/5 869/5/5
f 872/5/5 870/5/5 871/5/5
f 873/5/5 871/5/5 869/5/5
f 874/5/5 870/5/5 872/5/5
f 875/5/5 873/5/5 869/5/5
f 875/5/5 874/5/5 873/5/5
f 876/5/5 870/5/5 874/5/5
f 876/5/5 874/5/5 875/5/5
f 881/5/5 878/5/5 877/5/5
f 882/5/5 878/5/5 881/5/5
f 885/5/5 880/5/5 879/5/5
f 886/5/5 880/5/5 885/5/5
f 887/5/5 883/5/5 882/5/5
f 888/5/5 883/5/5 887/5/5
f 889/5/5 885/5/5 884/5/5
f 890/5/5 885/5/5 889/5/5
f 893/5/5 892/5/5 891/5/5
f 894/5/5 892/5/5 893/5/5
f 895/5/5 893/5/5 891/5/5
f 896/5/5 892/5/5 894/5/5
f 897/5/5 895/5/5 891/5/5
f 897/5/5 896/5/5 895/5/5
f 898/5/5 892/5/5 896/5/5
f 898/5/5 896/5/5 897/5/5
f 904/5/5 900/5/5 899/5/5
f 905/5/5 900/5/5 904/5/5
f 906/5/5 902/5/5 901/5/5
f 907/5/5 902/5/5 906/5/5
f 909/5/5 904/5/5 903/5/5
f 910/5/5 904/5/5 909/5/5
f 913/5/5 908/5/5 907/5/5
f 914/5/5 908/5/5 913/5/5
f 915/5/5 911/5/5 910/5/5
f 916/5/5 911/5/5 915/5/5
f 917/5/5 913/5/5 912/5/5
f 918/5/5 913/5/5 917/5/5
f 923/4/5 920/4/5 919/4/5
f 924/4/5 920/4/5 923/4/5
f 925/4/5 922/4/5 921/4/5
f 926/4/5 922/4/5 925/4/5
f 931/5/5 928/5/5 927/5/5
f 932/5/5 928/5/5 931/5/5
f 933/5/5 930/5/5 929/5/5
f 934/5/5 930/5/5 933/5/5
f 939/5/5 936/5/5 935/5/5
f 940/5/5 936/5/5 939/5/5
f 941/5/5 938/5/5 937/5/5
f 942/5/5 938/5/5 941/5/5
f 943/5/6 944/5/6 947/5/6
f 947/5/6 944/5/6 948/5/6
f 945/5/6 946/5/6 949/5/6
f 949/5/6 946/5/6 950/5/6
f 951/5/6 952/5/6 955/5/6
f 955/5/6 952/5/6 956/5/6
f 953/5/6 954/5/6 957/5/6
f 957/5/6 954/5/6 958/5/6
f 959/5/6 960/5/6 963/5/6
f 963/5/6 960/5/6 964/5/6
f 961/5/6 962/5/6 965/5/6
f 965/5/6 962/5/6 966/5/6
f 967/5/6 968/5/6 971/5/6
f 971/5/6 968/5/6 972/5/6
f 969/5/6 970/5/6 973/5/6
f 973/5/6 970/5/6 974/5/6
f 975/5/6 976/5/6 977/5/6
f 977/5/6 976/5/6 978/5/6
f 979/5/6 980/5/6 981/5/6
f 981/5/6 980/5/6 982/5/6
f 979/5/6 981/5/6 983/5/6
f 982/5/6 980/5/6 984/5/6
f 979/5/6 983/5/6 985/5/6
f 983/5/6 984/5/6 985/5/6
f 984/5/6 980/5/6 986/5/6
f 985/5/6 984/5/6 986/5/6
f 987/5/6 988/5/6 991/5/6
f 991/5/6 988/5/6 992/5/6
f 989/5/6 990/5/6 995/5/6
f 995/5/6 990/5/6 996/5/6
f 992/5/6 993/5/6 997/5/6
f 997/5/6 993/5/6 998/5/6
f 994/5/6 995/5/6 999/5/6
f 999/5/6 995/5/6 1000/5/6
f 1001/5/6 1002/5/6 1003/5/6
f 1003/5/6 1002/5/6 1004/5/6
f 1001/5/6 1003/5/6 1005/5/6
f 1004/5/6 1002/5/6 1006/5/6
f 1001/5/6 1005/5/6 1007/5/6
f 1005/5/6 1006/5/6 1007/5/6
f 1006/5/6 1002/5/6 1008/5/6
f 1007/5/6 1006/5/6 1008/5/6
f 1009/5/6 1010/5/6 1011/5/6
f 1011/5/6 1010/5/6 1012/5/6
f 1013/5/6 1014/5/6 1015/5/6
f 1015/5/6 1014/5/6 1016/5/6
f 1017/5/6 1018/5/6 1019/5/6
f 1019/5/6 1018/5/6 1020/5/6
f 1017/5/6 1019/5/6 1021/5/6
f 1020/5/6 1018/5/6 1022/5/6
f 1017/5/6 1021/5/6 1023/5/6
f 1021/5/6 1022/5/6 1023/5/6
f 1022/5/6 1018/5/6 1024/5/6
f 1023/5/6 1022/5/6 1024/5/6
f 1025/5/6 1026/5/6 1030/5/6
f 1030/5/6 1026/5/6 1031/5/6
f 1027/5/6 1028/5/6 1032/5/6
f 1032/5/6 1028/5/6 1033/5/6
f 1029/5/6 1030/5/6 1035/5/6
f 1035/5/6 1030/5/6 1036/5/6
f 1033/5/6 1034/5/6 1039/5/6
f 1039/5/6 1034/5/6 1040/5/6
f 1036/5/6 1037/5/6 1041/5/6
f 1041/5/6 1037/5/6 1042/5/6
f 1038/5/6 1039/5/6 1043/5/6
f 1043/5/6 1039/5/6 1044/5/6
f 1045/1/6 1046/1/6 1048/1/6
f 1048/1/6 1046/1/6 1049/1/6
f 1047/1/6 1048/1/6 1051/1/6
f 1051/1/6 1048/1/6 1052/1/6
f 1049/1/6 1050/1/6 1053/1/6
f 1053/1/6 1050/1/6 1054/1/6
f 1052/1/6 1053/1/6 1055/1/6
f 1055/1/6 1053/1/6 1056/1/6
f 1057/3/6 1058/3/6 1059/3/6
f 1059/3/6 1058/3/6 1060/3/6
f 1057/3/6 1059/3/6 1061/3/6
f 1060/3/6 1058/3/6 1062/3/6
f 1057/3/6 1061/3/6 1063/3/6
f 1061/3/6 1062/3/6 1063/3/6
f 1062/3/6 1058/3/6 1064/3/6
f 1063/3/6 1062/3/6 1064/3/6
f 1065/4/6 1066/4/6 1069/4/6
f 1069/4/6 1066/4/6 1070/4/6
f 1067/4/6 1068/4/6 1071/4/6
f 1071/4/6 1068/4/6 1072/4/6
f 1073/2/6 1074/2/6 1077/2/6
f 1077/2/6 1074/2/6 1078/2/6
f 1075/2/6 1076/2/6 1079/2/6
f 1079/2/6 1076/2/6 1080/2/6
f 1081/3/6 1082/3/6 1083/3/6
f 1083/3/6 1082/3/6 1084/3/6
f 1081/3/6 1083/3/6 1085/3/6
f 1084/3/6 1082/3/6 1086/3/6
f 1081/3/6 1085/3/6 1087/3/6
f 1085/3/6 1086/3/6 1087/3/6
f 1086/3/6 1082/3/6 1088/3/6
f 1087/3/6 1086/3/6 1088/3/6
f 1089/2/6 1090/2/6 1093/2/6
f 1093/2/6 1090/2/6 1094/2/6
f 1091/2/6 1092/2/6 1095/2/6
f 1095/2/6 1092/2/6 1096/2/6
f 1097/5/6 1098/5/6 1099/5/6
f 1099/5/6 1098/5/6 1100/5/6
f 1100/5/6 1098/5/6 1101/5/6
f 1101/5/6 1098/5/6 1102/5/6
f 1100/5/6 1101/5/6 1104/5/6
f 1104/5/6 1101/5/6 1105/5/6
f 1103/5/6 1104/5/6 1107/5/6
f 1105/5/6 1106/5/6 1108/5/6
f 1103/5/6 1107/5/6 1109/5/6
f 1107/5/6 1108/5/6 1109/5/6
f 1108/5/6 1106/5/6 1110/5/6
f 1109/5/6 1108/5/6 1110/5/6
f 1111/3/6 1112/3/6 1113/3/6
f 1113/3/6 1112/3/6 1114/3/6
f 1115/1/6 1116/1/6 1118/1/6
f 1118/1/6 1116/1/6 1119/1/6
f 1117/1/6 1118/1/6 1121/1/6
f 1121/1/6 1118/1/6 1122/1/6
f 1119/1/6 1120/1/6 1123/1/6
f 1123/1/6 1120/1/6 1124/1/6
f 1122/1/6 1123/1/6 1125/1/6
f 1125/1/6 1123/1/6 1126/1/6
f 1127/5/6 1128/5/6 1131/5/6
f 1131/5/6 1128/5/6 1132/5/6
f 1129/5/6 1130/5/6 1133/5/6
f 1133/5/6 1130/5/6 1134/5/6
f 1135/5/6 1136/5/6 1139/5/6
f 1139/5/6 1136/5/6 1140/5/6
f 1137/5/6 1138/5/6 1141/5/6
f 1141/5/6 1138/5/6 1142/5/6
f 1143/2/6 1144/2/6 1147/2/6
f 1147/2/6 1144/2/6 1148/2/6
f 1145/2/6 1146/2/6 1149/2/6
f 1149/2/6 1146/2/6 1150/2/6
f 1151/2/6 1152/2/6 1155/2/6
f 1155/2/6 1152/2/6 1156/2/6
f 1153/2/6 1154/2/6 1157/2/6
f 1157/2/6 1154/2/6 1158/2/6
f 1159/5/6 1160/5/6 1163/5/6
f 1163/5/6 1160/5/6 1164/5/6
f 1161/5/6 1162/5/6 1165/5/6
f 1165/5/6 1162/5/6 1166/5/6
f 1167/3/6 1168/3/6 1169/3/6
f 1169/3/6 1168/3/6 1170/3/6
