# MagicaVoxel @ Ephtracy

# group
o 

# material
mtllib black ant gomera.mtl
usemtl palette

# normals
vn -1 0 0
vn 1 0 0
vn 0 0 1
vn 0 0 -1
vn 0 -1 0
vn 0 1 0

# texcoords
vt 0.537109 0.5
vt 0.974609 0.5
vt 0.982422 0.5
vt 0.990234 0.5

# verts
v -1.05 -1.6 0.5
v -1.05 -1.6 0.4
v -1.05 -0.8 0.5
v -1.05 -0.8 0.4
v -1.05 0.1 0.9
v -1.05 0.1 0.4
v -1.05 0.2 0.9
v -1.05 0.2 0.4
v -0.95 -0.8 0.5
v -0.95 -0.8 0.4
v -0.95 -0.7 0.5
v -0.95 -0.7 0.4
v -0.95 0.1 0.4
v -0.95 0.1 0.3
v -0.95 0.2 0.4
v -0.95 0.2 0.3
v -0.85 -1.6 0
v -0.85 -1.6 -0.1
v -0.85 -0.8 0
v -0.85 -0.8 -0.1
v -0.75 -0.8 0
v -0.75 -0.8 -0.1
v -0.75 -0.7 0
v -0.75 -0.7 -0.1
v -0.55 -1.3 -0.3
v -0.55 -1.3 -1.4
v -0.55 -0.3 -0.3
v -0.55 -0.3 -1.4
v -0.45 -1.2 -0.2
v -0.45 -1.2 -0.3
v -0.45 -1.2 -1.4
v -0.45 -1.2 -1.6
v -0.45 -0.4 -0.2
v -0.45 -0.4 -0.3
v -0.45 -0.4 -1.4
v -0.45 -0.4 -1.6
v -0.45 0.9 0.7
v -0.45 0.9 0.5
v -0.45 1.1 0.7
v -0.45 1.1 0.5
v -0.35 -1.1 0.6
v -0.35 -1.1 0.1
v -0.35 -0.8 0.5
v -0.35 -0.8 0.4
v -0.35 -0.7 0.5
v -0.35 -0.7 0.4
v -0.35 -0.5 0.6
v -0.35 -0.5 0.1
v -0.35 -0.2 0.6
v -0.35 -0.2 0.1
v -0.35 0.1 0.4
v -0.35 0.1 0.3
v -0.35 0.2 0.4
v -0.35 0.2 0.3
v -0.35 0.4 0.6
v -0.35 0.4 0.1
v -0.35 0.6 0.8
v -0.35 0.6 0.1
v -0.35 0.7 1.1
v -0.35 0.7 1
v -0.35 0.8 1.1
v -0.35 0.8 1
v -0.35 0.9 0.7
v -0.35 0.9 0.5
v -0.35 1.1 0.7
v -0.35 1.1 0.5
v -0.35 1.2 0.8
v -0.35 1.2 0.7
v -0.35 1.2 0.6
v -0.35 1.2 0.1
v -0.35 1.4 0.8
v -0.35 1.4 0.7
v -0.35 1.4 0.6
v -0.35 1.5 1
v -0.35 1.5 0.8
v -0.35 1.5 0.7
v -0.35 1.6 1
v -0.35 1.6 0.8
v -0.25 -0.9 0.1
v -0.25 -0.9 -0.2
v -0.25 -0.8 0
v -0.25 -0.8 -0.1
v -0.25 -0.7 0
v -0.25 -0.7 -0.1
v -0.25 -0.6 0.1
v -0.25 -0.6 -0.2
v -0.25 -0.5 0.5
v -0.25 -0.5 0.2
v -0.25 -0.2 0.5
v -0.25 -0.2 0.2
v -0.25 0.7 1.2
v -0.25 0.7 1.1
v -0.25 0.7 1
v -0.25 0.7 0.8
v -0.25 0.8 1.2
v -0.25 0.8 1.1
v -0.25 0.8 1
v -0.25 0.8 0.8
v -0.15 0.4 0.4
v -0.15 0.4 0.2
v -0.15 0.6 0.4
v -0.15 0.6 0.2
v 0.0500001 0.7 1.2
v 0.0500001 0.7 1.1
v 0.0500001 0.7 1
v 0.0500001 0.7 0.8
v 0.0500001 0.8 1.2
v 0.0500001 0.8 1.1
v 0.0500001 0.8 1
v 0.0500001 0.8 0.8
v 0.15 0.7 1.1
v 0.15 0.7 1
v 0.15 0.8 1.1
v 0.15 0.8 1
v 0.15 1.2 0.7
v 0.15 1.2 0.6
v 0.15 1.4 0.8
v 0.15 1.4 0.7
v 0.15 1.4 0.6
v 0.15 1.5 1
v 0.15 1.5 0.8
v 0.15 1.5 0.7
v 0.15 1.6 1
v 0.15 1.6 0.8
v 0.35 0.1 1.7
v 0.35 0.1 1.5
v 0.35 0.3 1.7
v 0.35 0.3 1.5
v 0.45 0.1 1.8
v 0.45 0.1 1.7
v 0.45 0.3 1.8
v 0.45 0.3 1.7
v 0.55 0.1 1.9
v 0.55 0.1 1.8
v 0.55 0.1 1.5
v 0.55 0.1 0.4
v 0.55 0.1 0.3
v 0.55 0.1 -0.1
v 0.55 0.2 0.4
v 0.55 0.2 0.3
v 0.55 0.3 1.9
v 0.55 0.3 1.8
v 0.55 0.3 1.5
v 0.55 0.3 -0.1
v 0.65 0.3 0.4
v 0.65 0.3 0.3
v 0.65 0.4 0.4
v 0.65 0.4 0.3
v 0.75 -1.6 0
v 0.75 -1.6 -0.1
v 0.75 -0.8 0
v 0.75 -0.8 -0.1
v 0.85 -1.6 0.5
v 0.85 -1.6 0.4
v 0.85 -0.8 0.5
v 0.85 -0.8 0.4
v -0.95 -1.6 0.5
v -0.95 -1.6 0.4
v -0.95 -0.8 0.5
v -0.95 -0.8 0.4
v -0.95 0.1 0.9
v -0.95 0.1 0.4
v -0.95 0.2 0.9
v -0.95 0.2 0.4
v -0.75 -1.6 0
v -0.75 -1.6 -0.1
v -0.75 -0.8 0
v -0.75 -0.8 -0.1
v -0.25 0.7 1.1
v -0.25 0.7 1
v -0.25 0.8 1.1
v -0.25 0.8 1
v -0.25 1.2 0.7
v -0.25 1.2 0.6
v -0.25 1.4 0.8
v -0.25 1.4 0.7
v -0.25 1.4 0.6
v -0.25 1.5 1
v -0.25 1.5 0.8
v -0.25 1.5 0.7
v -0.25 1.6 1
v -0.25 1.6 0.8
v -0.15 0.7 1.2
v -0.15 0.7 1.1
v -0.15 0.7 1
v -0.15 0.7 0.8
v -0.15 0.8 1.2
v -0.15 0.8 1.1
v -0.15 0.8 1
v -0.15 0.8 0.8
v 0.0500001 0.4 0.4
v 0.0500001 0.4 0.2
v 0.0500001 0.6 0.4
v 0.0500001 0.6 0.2
v 0.15 -0.9 0.1
v 0.15 -0.9 -0.2
v 0.15 -0.8 0
v 0.15 -0.8 -0.1
v 0.15 -0.7 0
v 0.15 -0.7 -0.1
v 0.15 -0.6 0.1
v 0.15 -0.6 -0.2
v 0.15 -0.5 0.5
v 0.15 -0.5 0.2
v 0.15 -0.2 0.5
v 0.15 -0.2 0.2
v 0.15 0.7 1.2
v 0.15 0.7 1.1
v 0.15 0.7 1
v 0.15 0.7 0.8
v 0.15 0.8 1.2
v 0.15 0.8 1.1
v 0.15 0.8 1
v 0.15 0.8 0.8
v 0.25 -1.1 0.6
v 0.25 -1.1 0.1
v 0.25 -0.8 0.5
v 0.25 -0.8 0.4
v 0.25 -0.7 0.5
v 0.25 -0.7 0.4
v 0.25 -0.5 0.6
v 0.25 -0.5 0.1
v 0.25 -0.2 0.6
v 0.25 -0.2 0.1
v 0.25 0.1 0.4
v 0.25 0.1 0.3
v 0.25 0.2 0.4
v 0.25 0.2 0.3
v 0.25 0.4 0.6
v 0.25 0.4 0.1
v 0.25 0.6 0.8
v 0.25 0.6 0.1
v 0.25 0.7 1.1
v 0.25 0.7 1
v 0.25 0.8 1.1
v 0.25 0.8 1
v 0.25 0.9 0.7
v 0.25 0.9 0.5
v 0.25 1.1 0.7
v 0.25 1.1 0.5
v 0.25 1.2 0.8
v 0.25 1.2 0.7
v 0.25 1.2 0.6
v 0.25 1.2 0.1
v 0.25 1.4 0.8
v 0.25 1.4 0.7
v 0.25 1.4 0.6
v 0.25 1.5 1
v 0.25 1.5 0.8
v 0.25 1.5 0.7
v 0.25 1.6 1
v 0.25 1.6 0.8
v 0.35 -1.2 -0.2
v 0.35 -1.2 -0.3
v 0.35 -1.2 -1.4
v 0.35 -1.2 -1.6
v 0.35 -0.4 -0.2
v 0.35 -0.4 -0.3
v 0.35 -0.4 -1.4
v 0.35 -0.4 -1.6
v 0.35 0.9 0.7
v 0.35 0.9 0.5
v 0.35 1.1 0.7
v 0.35 1.1 0.5
v 0.45 -1.3 -0.3
v 0.45 -1.3 -1.4
v 0.45 -0.3 -0.3
v 0.45 -0.3 -1.4
v 0.75 -0.8 0
v 0.75 -0.8 -0.1
v 0.75 -0.7 0
v 0.75 -0.7 -0.1
v 0.75 0.1 1.9
v 0.75 0.1 1.8
v 0.75 0.1 1.5
v 0.75 0.1 0.4
v 0.75 0.1 0.3
v 0.75 0.1 -0.1
v 0.75 0.3 1.9
v 0.75 0.3 1.8
v 0.75 0.3 1.5
v 0.75 0.3 0.4
v 0.75 0.3 0.3
v 0.75 0.3 -0.1
v 0.85 -1.6 0
v 0.85 -1.6 -0.1
v 0.85 -0.8 0.5
v 0.85 -0.8 0.4
v 0.85 -0.8 0
v 0.85 -0.8 -0.1
v 0.85 -0.7 0.5
v 0.85 -0.7 0.4
v 0.85 0.1 1.8
v 0.85 0.1 1.7
v 0.85 0.1 0.4
v 0.85 0.1 0.3
v 0.85 0.3 1.8
v 0.85 0.3 1.7
v 0.85 0.4 0.4
v 0.85 0.4 0.3
v 0.95 -1.6 0.5
v 0.95 -1.6 0.4
v 0.95 -0.8 0.5
v 0.95 -0.8 0.4
v 0.95 0.1 1.7
v 0.95 0.1 1.5
v 0.95 0.3 1.7
v 0.95 0.3 1.5
v 0.55 0.1 1.9
v 0.55 0.3 1.9
v 0.75 0.1 1.9
v 0.75 0.3 1.9
v 0.45 0.1 1.8
v 0.45 0.3 1.8
v 0.55 0.1 1.8
v 0.55 0.3 1.8
v 0.75 0.1 1.8
v 0.75 0.3 1.8
v 0.85 0.1 1.8
v 0.85 0.3 1.8
v 0.35 0.1 1.7
v 0.35 0.3 1.7
v 0.45 0.1 1.7
v 0.45 0.3 1.7
v 0.85 0.1 1.7
v 0.85 0.3 1.7
v 0.95 0.1 1.7
v 0.95 0.3 1.7
v -0.25 0.7 1.2
v -0.25 0.8 1.2
v -0.15 0.7 1.2
v -0.15 0.8 1.2
v 0.0500001 0.7 1.2
v 0.0500001 0.8 1.2
v 0.15 0.7 1.2
v 0.15 0.8 1.2
v -0.35 0.7 1.1
v -0.35 0.8 1.1
v -0.25 0.7 1.1
v -0.25 0.8 1.1
v 0.15 0.7 1.1
v 0.15 0.8 1.1
v 0.25 0.7 1.1
v 0.25 0.8 1.1
v -0.35 1.5 1
v -0.35 1.6 1
v -0.25 0.7 1
v -0.25 0.8 1
v -0.25 1.5 1
v -0.25 1.6 1
v -0.15 0.7 1
v -0.15 0.8 1
v 0.0500001 0.7 1
v 0.0500001 0.8 1
v 0.15 0.7 1
v 0.15 0.8 1
v 0.15 1.5 1
v 0.15 1.6 1
v 0.25 1.5 1
v 0.25 1.6 1
v -1.05 0.1 0.9
v -1.05 0.2 0.9
v -0.95 0.1 0.9
v -0.95 0.2 0.9
v -0.35 0.6 0.8
v -0.35 1.2 0.8
v -0.35 1.4 0.8
v -0.35 1.5 0.8
v -0.25 0.7 0.8
v -0.25 0.8 0.8
v -0.25 1.4 0.8
v -0.25 1.5 0.8
v -0.15 0.7 0.8
v -0.15 0.8 0.8
v 0.0500001 0.7 0.8
v 0.0500001 0.8 0.8
v 0.15 0.7 0.8
v 0.15 0.8 0.8
v 0.15 1.4 0.8
v 0.15 1.5 0.8
v 0.25 0.6 0.8
v 0.25 1.2 0.8
v 0.25 1.4 0.8
v 0.25 1.5 0.8
v -0.45 0.9 0.7
v -0.45 1.1 0.7
v -0.35 0.9 0.7
v -0.35 1.1 0.7
v -0.35 1.2 0.7
v -0.35 1.4 0.7
v -0.25 1.2 0.7
v -0.25 1.4 0.7
v 0.15 1.2 0.7
v 0.15 1.4 0.7
v 0.25 0.9 0.7
v 0.25 1.1 0.7
v 0.25 1.2 0.7
v 0.25 1.4 0.7
v 0.35 0.9 0.7
v 0.35 1.1 0.7
v -0.35 -1.1 0.6
v -0.35 -0.5 0.6
v -0.35 -0.2 0.6
v -0.35 0.4 0.6
v 0.25 -1.1 0.6
v 0.25 -0.5 0.6
v 0.25 -0.2 0.6
v 0.25 0.4 0.6
v -1.05 -1.6 0.5
v -1.05 -0.8 0.5
v -0.95 -1.6 0.5
v -0.95 -0.8 0.5
v -0.95 -0.7 0.5
v -0.35 -0.8 0.5
v -0.35 -0.7 0.5
v -0.25 -0.5 0.5
v -0.25 -0.2 0.5
v 0.15 -0.5 0.5
v 0.15 -0.2 0.5
v 0.25 -0.8 0.5
v 0.25 -0.7 0.5
v 0.85 -1.6 0.5
v 0.85 -0.8 0.5
v 0.85 -0.7 0.5
v 0.95 -1.6 0.5
v 0.95 -0.8 0.5
v -0.95 0.1 0.4
v -0.95 0.2 0.4
v -0.35 0.1 0.4
v -0.35 0.2 0.4
v -0.15 0.4 0.4
v -0.15 0.6 0.4
v 0.0500001 0.4 0.4
v 0.0500001 0.6 0.4
v 0.25 0.1 0.4
v 0.25 0.2 0.4
v 0.55 0.1 0.4
v 0.55 0.2 0.4
v 0.65 0.3 0.4
v 0.65 0.4 0.4
v 0.75 0.1 0.4
v 0.75 0.3 0.4
v 0.85 0.1 0.4
v 0.85 0.4 0.4
v -0.85 -1.6 0
v -0.85 -0.8 0
v -0.75 -1.6 0
v -0.75 -0.8 0
v -0.75 -0.7 0
v -0.25 -0.8 0
v -0.25 -0.7 0
v 0.15 -0.8 0
v 0.15 -0.7 0
v 0.75 -1.6 0
v 0.75 -0.8 0
v 0.75 -0.7 0
v 0.85 -1.6 0
v 0.85 -0.8 0
v -0.45 -1.2 -0.2
v -0.45 -0.4 -0.2
v -0.25 -0.9 -0.2
v -0.25 -0.6 -0.2
v 0.15 -0.9 -0.2
v 0.15 -0.6 -0.2
v 0.35 -1.2 -0.2
v 0.35 -0.4 -0.2
v -0.55 -1.3 -0.3
v -0.55 -0.3 -0.3
v -0.45 -1.2 -0.3
v -0.45 -0.4 -0.3
v 0.35 -1.2 -0.3
v 0.35 -0.4 -0.3
v 0.45 -1.3 -0.3
v 0.45 -0.3 -0.3
v 0.35 0.1 1.5
v 0.35 0.3 1.5
v 0.55 0.1 1.5
v 0.55 0.3 1.5
v 0.75 0.1 1.5
v 0.75 0.3 1.5
v 0.95 0.1 1.5
v 0.95 0.3 1.5
v -0.25 0.7 1.1
v -0.25 0.8 1.1
v -0.15 0.7 1.1
v -0.15 0.8 1.1
v 0.0500001 0.7 1.1
v 0.0500001 0.8 1.1
v 0.15 0.7 1.1
v 0.15 0.8 1.1
v -0.35 0.7 1
v -0.35 0.8 1
v -0.25 0.7 1
v -0.25 0.8 1
v 0.15 0.7 1
v 0.15 0.8 1
v 0.25 0.7 1
v 0.25 0.8 1
v -0.35 1.5 0.8
v -0.35 1.6 0.8
v -0.25 1.5 0.8
v -0.25 1.6 0.8
v 0.15 1.5 0.8
v 0.15 1.6 0.8
v 0.25 1.5 0.8
v 0.25 1.6 0.8
v -0.35 1.4 0.7
v -0.35 1.5 0.7
v -0.25 1.4 0.7
v -0.25 1.5 0.7
v 0.15 1.4 0.7
v 0.15 1.5 0.7
v 0.25 1.4 0.7
v 0.25 1.5 0.7
v -0.35 1.2 0.6
v -0.35 1.4 0.6
v -0.25 1.2 0.6
v -0.25 1.4 0.6
v 0.15 1.2 0.6
v 0.15 1.4 0.6
v 0.25 1.2 0.6
v 0.25 1.4 0.6
v -0.45 0.9 0.5
v -0.45 1.1 0.5
v -0.35 0.9 0.5
v -0.35 1.1 0.5
v 0.25 0.9 0.5
v 0.25 1.1 0.5
v 0.35 0.9 0.5
v 0.35 1.1 0.5
v -1.05 -1.6 0.4
v -1.05 -0.8 0.4
v -1.05 0.1 0.4
v -1.05 0.2 0.4
v -0.95 -1.6 0.4
v -0.95 -0.8 0.4
v -0.95 -0.7 0.4
v -0.95 0.1 0.4
v -0.95 0.2 0.4
v -0.35 -0.8 0.4
v -0.35 -0.7 0.4
v 0.25 -0.8 0.4
v 0.25 -0.7 0.4
v 0.85 -1.6 0.4
v 0.85 -0.8 0.4
v 0.85 -0.7 0.4
v 0.95 -1.6 0.4
v 0.95 -0.8 0.4
v -0.95 0.1 0.3
v -0.95 0.2 0.3
v -0.35 0.1 0.3
v -0.35 0.2 0.3
v 0.25 0.1 0.3
v 0.25 0.2 0.3
v 0.55 0.1 0.3
v 0.55 0.2 0.3
v 0.65 0.3 0.3
v 0.65 0.4 0.3
v 0.75 0.1 0.3
v 0.75 0.3 0.3
v 0.85 0.1 0.3
v 0.85 0.4 0.3
v -0.25 -0.5 0.2
v -0.25 -0.2 0.2
v -0.15 0.4 0.2
v -0.15 0.6 0.2
v 0.0500001 0.4 0.2
v 0.0500001 0.6 0.2
v 0.15 -0.5 0.2
v 0.15 -0.2 0.2
v -0.35 -1.1 0.1
v -0.35 -0.5 0.1
v -0.35 -0.2 0.1
v -0.35 0.4 0.1
v -0.35 0.6 0.1
v -0.35 1.2 0.1
v -0.25 -0.9 0.1
v -0.25 -0.6 0.1
v 0.15 -0.9 0.1
v 0.15 -0.6 0.1
v 0.25 -1.1 0.1
v 0.25 -0.5 0.1
v 0.25 -0.2 0.1
v 0.25 0.4 0.1
v 0.25 0.6 0.1
v 0.25 1.2 0.1
v -0.85 -1.6 -0.1
v -0.85 -0.8 -0.1
v -0.75 -1.6 -0.1
v -0.75 -0.8 -0.1
v -0.75 -0.7 -0.1
v -0.25 -0.8 -0.1
v -0.25 -0.7 -0.1
v 0.15 -0.8 -0.1
v 0.15 -0.7 -0.1
v 0.55 0.1 -0.1
v 0.55 0.3 -0.1
v 0.75 -1.6 -0.1
v 0.75 -0.8 -0.1
v 0.75 -0.7 -0.1
v 0.75 0.1 -0.1
v 0.75 0.3 -0.1
v 0.85 -1.6 -0.1
v 0.85 -0.8 -0.1
v -0.55 -1.3 -1.4
v -0.55 -0.3 -1.4
v -0.45 -1.2 -1.4
v -0.45 -0.4 -1.4
v 0.35 -1.2 -1.4
v 0.35 -0.4 -1.4
v 0.45 -1.3 -1.4
v 0.45 -0.3 -1.4
v -0.45 -1.2 -1.6
v -0.45 -0.4 -1.6
v 0.35 -1.2 -1.6
v 0.35 -0.4 -1.6
v -1.05 -1.6 0.5
v -0.95 -1.6 0.5
v 0.85 -1.6 0.5
v 0.95 -1.6 0.5
v -1.05 -1.6 0.4
v -0.95 -1.6 0.4
v 0.85 -1.6 0.4
v 0.95 -1.6 0.4
v -0.85 -1.6 0
v -0.75 -1.6 0
v 0.75 -1.6 0
v 0.85 -1.6 0
v -0.85 -1.6 -0.1
v -0.75 -1.6 -0.1
v 0.75 -1.6 -0.1
v 0.85 -1.6 -0.1
v -0.55 -1.3 -0.3
v 0.45 -1.3 -0.3
v -0.55 -1.3 -1.4
v 0.45 -1.3 -1.4
v -0.45 -1.2 -0.2
v 0.35 -1.2 -0.2
v -0.45 -1.2 -0.3
v 0.35 -1.2 -0.3
v -0.45 -1.2 -1.4
v 0.35 -1.2 -1.4
v -0.45 -1.2 -1.6
v 0.35 -1.2 -1.6
v -0.35 -1.1 0.6
v 0.25 -1.1 0.6
v -0.35 -1.1 0.1
v 0.25 -1.1 0.1
v -0.25 -0.9 0.1
v 0.15 -0.9 0.1
v -0.25 -0.9 -0.2
v 0.15 -0.9 -0.2
v -0.95 -0.8 0.5
v -0.35 -0.8 0.5
v 0.25 -0.8 0.5
v 0.85 -0.8 0.5
v -0.95 -0.8 0.4
v -0.35 -0.8 0.4
v 0.25 -0.8 0.4
v 0.85 -0.8 0.4
v -0.75 -0.8 0
v -0.25 -0.8 0
v 0.15 -0.8 0
v 0.75 -0.8 0
v -0.75 -0.8 -0.1
v -0.25 -0.8 -0.1
v 0.15 -0.8 -0.1
v 0.75 -0.8 -0.1
v -0.35 -0.2 0.6
v 0.25 -0.2 0.6
v -0.25 -0.2 0.5
v 0.15 -0.2 0.5
v -0.25 -0.2 0.2
v 0.15 -0.2 0.2
v -0.35 -0.2 0.1
v 0.25 -0.2 0.1
v 0.55 0.1 1.9
v 0.75 0.1 1.9
v 0.45 0.1 1.8
v 0.55 0.1 1.8
v 0.75 0.1 1.8
v 0.85 0.1 1.8
v 0.35 0.1 1.7
v 0.45 0.1 1.7
v 0.85 0.1 1.7
v 0.95 0.1 1.7
v 0.35 0.1 1.5
v 0.55 0.1 1.5
v 0.75 0.1 1.5
v 0.95 0.1 1.5
v -1.05 0.1 0.9
v -0.95 0.1 0.9
v -1.05 0.1 0.4
v -0.95 0.1 0.4
v -0.35 0.1 0.4
v 0.25 0.1 0.4
v 0.55 0.1 0.4
v 0.75 0.1 0.4
v 0.85 0.1 0.4
v -0.95 0.1 0.3
v -0.35 0.1 0.3
v 0.25 0.1 0.3
v 0.55 0.1 0.3
v 0.75 0.1 0.3
v 0.85 0.1 0.3
v 0.55 0.1 -0.1
v 0.75 0.1 -0.1
v -0.35 0.6 0.8
v 0.25 0.6 0.8
v -0.15 0.6 0.4
v 0.0500001 0.6 0.4
v -0.15 0.6 0.2
v 0.0500001 0.6 0.2
v -0.35 0.6 0.1
v 0.25 0.6 0.1
v -0.25 0.7 1.2
v -0.15 0.7 1.2
v 0.0500001 0.7 1.2
v 0.15 0.7 1.2
v -0.35 0.7 1.1
v -0.25 0.7 1.1
v -0.15 0.7 1.1
v 0.0500001 0.7 1.1
v 0.15 0.7 1.1
v 0.25 0.7 1.1
v -0.35 0.7 1
v -0.25 0.7 1
v -0.15 0.7 1
v 0.0500001 0.7 1
v 0.15 0.7 1
v 0.25 0.7 1
v -0.25 0.7 0.8
v -0.15 0.7 0.8
v 0.0500001 0.7 0.8
v 0.15 0.7 0.8
v -0.45 0.9 0.7
v -0.35 0.9 0.7
v 0.25 0.9 0.7
v 0.35 0.9 0.7
v -0.45 0.9 0.5
v -0.35 0.9 0.5
v 0.25 0.9 0.5
v 0.35 0.9 0.5
v -0.35 1.4 0.8
v -0.25 1.4 0.8
v 0.15 1.4 0.8
v 0.25 1.4 0.8
v -0.35 1.4 0.7
v -0.25 1.4 0.7
v 0.15 1.4 0.7
v 0.25 1.4 0.7
v -0.35 1.5 1
v -0.25 1.5 1
v 0.15 1.5 1
v 0.25 1.5 1
v -0.35 1.5 0.8
v -0.25 1.5 0.8
v 0.15 1.5 0.8
v 0.25 1.5 0.8
v -1.05 -0.8 0.5
v -0.95 -0.8 0.5
v 0.85 -0.8 0.5
v 0.95 -0.8 0.5
v -1.05 -0.8 0.4
v -0.95 -0.8 0.4
v 0.85 -0.8 0.4
v 0.95 -0.8 0.4
v -0.85 -0.8 0
v -0.75 -0.8 0
v 0.75 -0.8 0
v 0.85 -0.8 0
v -0.85 -0.8 -0.1
v -0.75 -0.8 -0.1
v 0.75 -0.8 -0.1
v 0.85 -0.8 -0.1
v -0.95 -0.7 0.5
v -0.35 -0.7 0.5
v 0.25 -0.7 0.5
v 0.85 -0.7 0.5
v -0.95 -0.7 0.4
v -0.35 -0.7 0.4
v 0.25 -0.7 0.4
v 0.85 -0.7 0.4
v -0.75 -0.7 0
v -0.25 -0.7 0
v 0.15 -0.7 0
v 0.75 -0.7 0
v -0.75 -0.7 -0.1
v -0.25 -0.7 -0.1
v 0.15 -0.7 -0.1
v 0.75 -0.7 -0.1
v -0.25 -0.6 0.1
v 0.15 -0.6 0.1
v -0.25 -0.6 -0.2
v 0.15 -0.6 -0.2
v -0.35 -0.5 0.6
v 0.25 -0.5 0.6
v -0.25 -0.5 0.5
v 0.15 -0.5 0.5
v -0.25 -0.5 0.2
v 0.15 -0.5 0.2
v -0.35 -0.5 0.1
v 0.25 -0.5 0.1
v -0.45 -0.4 -0.2
v 0.35 -0.4 -0.2
v -0.45 -0.4 -0.3
v 0.35 -0.4 -0.3
v -0.45 -0.4 -1.4
v 0.35 -0.4 -1.4
v -0.45 -0.4 -1.6
v 0.35 -0.4 -1.6
v -0.55 -0.3 -0.3
v 0.45 -0.3 -0.3
v -0.55 -0.3 -1.4
v 0.45 -0.3 -1.4
v -1.05 0.2 0.9
v -0.95 0.2 0.9
v -1.05 0.2 0.4
v -0.95 0.2 0.4
v -0.35 0.2 0.4
v 0.25 0.2 0.4
v 0.55 0.2 0.4
v -0.95 0.2 0.3
v -0.35 0.2 0.3
v 0.25 0.2 0.3
v 0.55 0.2 0.3
v 0.55 0.3 1.9
v 0.75 0.3 1.9
v 0.45 0.3 1.8
v 0.55 0.3 1.8
v 0.75 0.3 1.8
v 0.85 0.3 1.8
v 0.35 0.3 1.7
v 0.45 0.3 1.7
v 0.85 0.3 1.7
v 0.95 0.3 1.7
v 0.35 0.3 1.5
v 0.55 0.3 1.5
v 0.75 0.3 1.5
v 0.95 0.3 1.5
v 0.65 0.3 0.4
v 0.75 0.3 0.4
v 0.65 0.3 0.3
v 0.75 0.3 0.3
v 0.55 0.3 -0.1
v 0.75 0.3 -0.1
v -0.35 0.4 0.6
v 0.25 0.4 0.6
v -0.15 0.4 0.4
v 0.0500001 0.4 0.4
v 0.65 0.4 0.4
v 0.85 0.4 0.4
v 0.65 0.4 0.3
v 0.85 0.4 0.3
v -0.15 0.4 0.2
v 0.0500001 0.4 0.2
v -0.35 0.4 0.1
v 0.25 0.4 0.1
v -0.25 0.8 1.2
v -0.15 0.8 1.2
v 0.0500001 0.8 1.2
v 0.15 0.8 1.2
v -0.35 0.8 1.1
v -0.25 0.8 1.1
v -0.15 0.8 1.1
v 0.0500001 0.8 1.1
v 0.15 0.8 1.1
v 0.25 0.8 1.1
v -0.35 0.8 1
v -0.25 0.8 1
v -0.15 0.8 1
v 0.0500001 0.8 1
v 0.15 0.8 1
v 0.25 0.8 1
v -0.25 0.8 0.8
v -0.15 0.8 0.8
v 0.0500001 0.8 0.8
v 0.15 0.8 0.8
v -0.45 1.1 0.7
v -0.35 1.1 0.7
v 0.25 1.1 0.7
v 0.35 1.1 0.7
v -0.45 1.1 0.5
v -0.35 1.1 0.5
v 0.25 1.1 0.5
v 0.35 1.1 0.5
v -0.35 1.2 0.8
v 0.25 1.2 0.8
v -0.35 1.2 0.7
v -0.25 1.2 0.7
v 0.15 1.2 0.7
v 0.25 1.2 0.7
v -0.35 1.2 0.6
v -0.25 1.2 0.6
v 0.15 1.2 0.6
v 0.25 1.2 0.6
v -0.35 1.2 0.1
v 0.25 1.2 0.1
v -0.35 1.4 0.7
v -0.25 1.4 0.7
v 0.15 1.4 0.7
v 0.25 1.4 0.7
v -0.35 1.4 0.6
v -0.25 1.4 0.6
v 0.15 1.4 0.6
v 0.25 1.4 0.6
v -0.35 1.5 0.8
v -0.25 1.5 0.8
v 0.15 1.5 0.8
v 0.25 1.5 0.8
v -0.35 1.5 0.7
v -0.25 1.5 0.7
v 0.15 1.5 0.7
v 0.25 1.5 0.7
v -0.35 1.6 1
v -0.25 1.6 1
v 0.15 1.6 1
v 0.25 1.6 1
v -0.35 1.6 0.8
v -0.25 1.6 0.8
v 0.15 1.6 0.8
v 0.25 1.6 0.8

# faces
f 3/4/1 2/4/1 1/4/1
f 4/4/1 2/4/1 3/4/1
f 7/4/1 6/4/1 5/4/1
f 8/4/1 6/4/1 7/4/1
f 11/4/1 10/4/1 9/4/1
f 12/4/1 10/4/1 11/4/1
f 15/4/1 14/4/1 13/4/1
f 16/4/1 14/4/1 15/4/1
f 19/4/1 18/4/1 17/4/1
f 20/4/1 18/4/1 19/4/1
f 23/4/1 22/4/1 21/4/1
f 24/4/1 22/4/1 23/4/1
f 27/4/1 26/4/1 25/4/1
f 28/4/1 26/4/1 27/4/1
f 33/4/1 30/4/1 29/4/1
f 34/4/1 30/4/1 33/4/1
f 35/4/1 32/4/1 31/4/1
f 36/4/1 32/4/1 35/4/1
f 39/2/1 38/2/1 37/2/1
f 40/2/1 38/2/1 39/2/1
f 43/4/1 42/4/1 41/4/1
f 44/4/1 42/4/1 43/4/1
f 45/4/1 43/4/1 41/4/1
f 46/4/1 42/4/1 44/4/1
f 47/4/1 45/4/1 41/4/1
f 47/4/1 46/4/1 45/4/1
f 48/4/1 42/4/1 46/4/1
f 48/4/1 46/4/1 47/4/1
f 51/4/1 50/4/1 49/4/1
f 52/4/1 50/4/1 51/4/1
f 53/4/1 51/4/1 49/4/1
f 54/4/1 50/4/1 52/4/1
f 55/4/1 53/4/1 49/4/1
f 55/4/1 54/4/1 53/4/1
f 56/4/1 50/4/1 54/4/1
f 56/4/1 54/4/1 55/4/1
f 61/4/1 60/4/1 59/4/1
f 62/4/1 60/4/1 61/4/1
f 63/4/1 58/4/1 57/4/1
f 64/4/1 58/4/1 63/4/1
f 65/4/1 63/4/1 57/4/1
f 66/4/1 58/4/1 64/4/1
f 67/4/1 65/4/1 57/4/1
f 67/4/1 66/4/1 65/4/1
f 68/4/1 66/4/1 67/4/1
f 69/4/1 66/4/1 68/4/1
f 70/4/1 58/4/1 66/4/1
f 70/4/1 66/4/1 69/4/1
f 72/4/1 69/4/1 68/4/1
f 73/4/1 69/4/1 72/4/1
f 75/4/1 72/4/1 71/4/1
f 76/4/1 72/4/1 75/4/1
f 77/4/1 75/4/1 74/4/1
f 78/4/1 75/4/1 77/4/1
f 81/4/1 80/4/1 79/4/1
f 82/4/1 80/4/1 81/4/1
f 83/4/1 81/4/1 79/4/1
f 84/4/1 80/4/1 82/4/1
f 85/4/1 83/4/1 79/4/1
f 85/4/1 84/4/1 83/4/1
f 86/4/1 80/4/1 84/4/1
f 86/4/1 84/4/1 85/4/1
f 89/4/1 88/4/1 87/4/1
f 90/4/1 88/4/1 89/4/1
f 95/4/1 92/4/1 91/4/1
f 96/4/1 92/4/1 95/4/1
f 97/4/1 94/4/1 93/4/1
f 98/4/1 94/4/1 97/4/1
f 101/4/1 100/4/1 99/4/1
f 102/4/1 100/4/1 101/4/1
f 107/4/1 104/4/1 103/4/1
f 108/4/1 104/4/1 107/4/1
f 109/4/1 106/4/1 105/4/1
f 110/4/1 106/4/1 109/4/1
f 113/4/1 112/4/1 111/4/1
f 114/4/1 112/4/1 113/4/1
f 118/4/1 116/4/1 115/4/1
f 119/4/1 116/4/1 118/4/1
f 121/4/1 118/4/1 117/4/1
f 122/4/1 118/4/1 121/4/1
f 123/4/1 121/4/1 120/4/1
f 124/4/1 121/4/1 123/4/1
f 127/3/1 126/3/1 125/3/1
f 128/3/1 126/3/1 127/3/1
f 131/3/1 130/3/1 129/3/1
f 132/3/1 130/3/1 131/3/1
f 139/1/1 136/1/1 135/1/1
f 140/1/1 138/1/1 137/1/1
f 141/3/1 134/3/1 133/3/1
f 142/3/1 134/3/1 141/3/1
f 143/1/1 140/1/1 139/1/1
f 143/1/1 139/1/1 135/1/1
f 144/1/1 138/1/1 140/1/1
f 144/1/1 140/1/1 143/1/1
f 147/4/1 146/4/1 145/4/1
f 148/4/1 146/4/1 147/4/1
f 151/4/1 150/4/1 149/4/1
f 152/4/1 150/4/1 151/4/1
f 155/4/1 154/4/1 153/4/1
f 156/4/1 154/4/1 155/4/1
f 157/4/2 158/4/2 159/4/2
f 159/4/2 158/4/2 160/4/2
f 161/4/2 162/4/2 163/4/2
f 163/4/2 162/4/2 164/4/2
f 165/4/2 166/4/2 167/4/2
f 167/4/2 166/4/2 168/4/2
f 169/4/2 170/4/2 171/4/2
f 171/4/2 170/4/2 172/4/2
f 173/4/2 174/4/2 176/4/2
f 176/4/2 174/4/2 177/4/2
f 175/4/2 176/4/2 179/4/2
f 179/4/2 176/4/2 180/4/2
f 178/4/2 179/4/2 181/4/2
f 181/4/2 179/4/2 182/4/2
f 183/4/2 184/4/2 187/4/2
f 187/4/2 184/4/2 188/4/2
f 185/4/2 186/4/2 189/4/2
f 189/4/2 186/4/2 190/4/2
f 191/4/2 192/4/2 193/4/2
f 193/4/2 192/4/2 194/4/2
f 195/4/2 196/4/2 197/4/2
f 197/4/2 196/4/2 198/4/2
f 195/4/2 197/4/2 199/4/2
f 198/4/2 196/4/2 200/4/2
f 195/4/2 199/4/2 201/4/2
f 199/4/2 200/4/2 201/4/2
f 200/4/2 196/4/2 202/4/2
f 201/4/2 200/4/2 202/4/2
f 203/4/2 204/4/2 205/4/2
f 205/4/2 204/4/2 206/4/2
f 207/4/2 208/4/2 211/4/2
f 211/4/2 208/4/2 212/4/2
f 209/4/2 210/4/2 213/4/2
f 213/4/2 210/4/2 214/4/2
f 215/4/2 216/4/2 217/4/2
f 217/4/2 216/4/2 218/4/2
f 215/4/2 217/4/2 219/4/2
f 218/4/2 216/4/2 220/4/2
f 215/4/2 219/4/2 221/4/2
f 219/4/2 220/4/2 221/4/2
f 220/4/2 216/4/2 222/4/2
f 221/4/2 220/4/2 222/4/2
f 223/4/2 224/4/2 225/4/2
f 225/4/2 224/4/2 226/4/2
f 223/4/2 225/4/2 227/4/2
f 226/4/2 224/4/2 228/4/2
f 223/4/2 227/4/2 229/4/2
f 227/4/2 228/4/2 229/4/2
f 228/4/2 224/4/2 230/4/2
f 229/4/2 228/4/2 230/4/2
f 233/4/2 234/4/2 235/4/2
f 235/4/2 234/4/2 236/4/2
f 231/4/2 232/4/2 237/4/2
f 237/4/2 232/4/2 238/4/2
f 231/4/2 237/4/2 239/4/2
f 238/4/2 232/4/2 240/4/2
f 231/4/2 239/4/2 241/4/2
f 239/4/2 240/4/2 241/4/2
f 241/4/2 240/4/2 242/4/2
f 242/4/2 240/4/2 243/4/2
f 240/4/2 232/4/2 244/4/2
f 243/4/2 240/4/2 244/4/2
f 242/4/2 243/4/2 246/4/2
f 246/4/2 243/4/2 247/4/2
f 245/4/2 246/4/2 249/4/2
f 249/4/2 246/4/2 250/4/2
f 248/4/2 249/4/2 251/4/2
f 251/4/2 249/4/2 252/4/2
f 253/4/2 254/4/2 257/4/2
f 257/4/2 254/4/2 258/4/2
f 255/4/2 256/4/2 259/4/2
f 259/4/2 256/4/2 260/4/2
f 261/2/2 262/2/2 263/2/2
f 263/2/2 262/2/2 264/2/2
f 265/4/2 266/4/2 267/4/2
f 267/4/2 266/4/2 268/4/2
f 269/4/2 270/4/2 271/4/2
f 271/4/2 270/4/2 272/4/2
f 273/3/2 274/3/2 279/3/2
f 279/3/2 274/3/2 280/3/2
f 275/1/2 276/1/2 281/1/2
f 281/1/2 276/1/2 282/1/2
f 277/1/2 278/1/2 283/1/2
f 283/1/2 278/1/2 284/1/2
f 285/4/2 286/4/2 289/4/2
f 289/4/2 286/4/2 290/4/2
f 287/4/2 288/4/2 291/4/2
f 291/4/2 288/4/2 292/4/2
f 293/3/2 294/3/2 297/3/2
f 297/3/2 294/3/2 298/3/2
f 295/4/2 296/4/2 299/4/2
f 299/4/2 296/4/2 300/4/2
f 301/4/2 302/4/2 303/4/2
f 303/4/2 302/4/2 304/4/2
f 305/3/2 306/3/2 307/3/2
f 307/3/2 306/3/2 308/3/2
f 311/3/3 310/3/3 309/3/3
f 312/3/3 310/3/3 311/3/3
f 315/3/3 314/3/3 313/3/3
f 316/3/3 314/3/3 315/3/3
f 319/3/3 318/3/3 317/3/3
f 320/3/3 318/3/3 319/3/3
f 323/3/3 322/3/3 321/3/3
f 324/3/3 322/3/3 323/3/3
f 327/3/3 326/3/3 325/3/3
f 328/3/3 326/3/3 327/3/3
f 331/4/3 330/4/3 329/4/3
f 332/4/3 330/4/3 331/4/3
f 335/4/3 334/4/3 333/4/3
f 336/4/3 334/4/3 335/4/3
f 339/4/3 338/4/3 337/4/3
f 340/4/3 338/4/3 339/4/3
f 343/4/3 342/4/3 341/4/3
f 344/4/3 342/4/3 343/4/3
f 349/4/3 346/4/3 345/4/3
f 350/4/3 346/4/3 349/4/3
f 351/4/3 348/4/3 347/4/3
f 352/4/3 348/4/3 351/4/3
f 355/4/3 354/4/3 353/4/3
f 356/4/3 354/4/3 355/4/3
f 359/4/3 358/4/3 357/4/3
f 360/4/3 358/4/3 359/4/3
f 363/4/3 362/4/3 361/4/3
f 364/4/3 362/4/3 363/4/3
f 369/4/3 366/4/3 365/4/3
f 370/4/3 366/4/3 369/4/3
f 371/4/3 368/4/3 367/4/3
f 372/4/3 368/4/3 371/4/3
f 373/4/3 369/4/3 365/4/3
f 374/4/3 366/4/3 370/4/3
f 375/4/3 373/4/3 365/4/3
f 375/4/3 374/4/3 373/4/3
f 376/4/3 366/4/3 374/4/3
f 376/4/3 374/4/3 375/4/3
f 377/4/3 375/4/3 365/4/3
f 378/4/3 366/4/3 376/4/3
f 381/4/3 377/4/3 365/4/3
f 381/4/3 378/4/3 377/4/3
f 382/4/3 366/4/3 378/4/3
f 382/4/3 378/4/3 381/4/3
f 383/4/3 380/4/3 379/4/3
f 384/4/3 380/4/3 383/4/3
f 387/2/3 386/2/3 385/2/3
f 388/2/3 386/2/3 387/2/3
f 391/4/3 390/4/3 389/4/3
f 392/4/3 390/4/3 391/4/3
f 397/4/3 394/4/3 393/4/3
f 398/4/3 394/4/3 397/4/3
f 399/2/3 396/2/3 395/2/3
f 400/2/3 396/2/3 399/2/3
f 405/4/3 402/4/3 401/4/3
f 406/4/3 402/4/3 405/4/3
f 407/4/3 404/4/3 403/4/3
f 408/4/3 404/4/3 407/4/3
f 411/4/3 410/4/3 409/4/3
f 412/4/3 410/4/3 411/4/3
f 414/4/3 413/4/3 412/4/3
f 415/4/3 413/4/3 414/4/3
f 418/4/3 417/4/3 416/4/3
f 419/4/3 417/4/3 418/4/3
f 423/4/3 421/4/3 420/4/3
f 424/4/3 421/4/3 423/4/3
f 425/4/3 423/4/3 422/4/3
f 426/4/3 423/4/3 425/4/3
f 429/4/3 428/4/3 427/4/3
f 430/4/3 428/4/3 429/4/3
f 433/4/3 432/4/3 431/4/3
f 434/4/3 432/4/3 433/4/3
f 437/4/3 436/4/3 435/4/3
f 438/4/3 436/4/3 437/4/3
f 442/4/3 440/4/3 439/4/3
f 443/4/3 442/4/3 441/4/3
f 444/4/3 440/4/3 442/4/3
f 444/4/3 442/4/3 443/4/3
f 447/4/3 446/4/3 445/4/3
f 448/4/3 446/4/3 447/4/3
f 450/4/3 449/4/3 448/4/3
f 451/4/3 449/4/3 450/4/3
f 455/4/3 453/4/3 452/4/3
f 456/4/3 453/4/3 455/4/3
f 457/4/3 455/4/3 454/4/3
f 458/4/3 455/4/3 457/4/3
f 461/4/3 460/4/3 459/4/3
f 462/4/3 460/4/3 461/4/3
f 463/4/3 461/4/3 459/4/3
f 464/4/3 460/4/3 462/4/3
f 465/4/3 463/4/3 459/4/3
f 465/4/3 464/4/3 463/4/3
f 466/4/3 460/4/3 464/4/3
f 466/4/3 464/4/3 465/4/3
f 469/4/3 468/4/3 467/4/3
f 470/4/3 468/4/3 469/4/3
f 471/4/3 469/4/3 467/4/3
f 472/4/3 468/4/3 470/4/3
f 473/4/3 471/4/3 467/4/3
f 473/4/3 472/4/3 471/4/3
f 474/4/3 468/4/3 472/4/3
f 474/4/3 472/4/3 473/4/3
f 475/3/4 476/3/4 477/3/4
f 477/3/4 476/3/4 478/3/4
f 479/3/4 480/3/4 481/3/4
f 481/3/4 480/3/4 482/3/4
f 483/4/4 484/4/4 485/4/4
f 485/4/4 484/4/4 486/4/4
f 487/4/4 488/4/4 489/4/4
f 489/4/4 488/4/4 490/4/4
f 491/4/4 492/4/4 493/4/4
f 493/4/4 492/4/4 494/4/4
f 495/4/4 496/4/4 497/4/4
f 497/4/4 496/4/4 498/4/4
f 499/4/4 500/4/4 501/4/4
f 501/4/4 500/4/4 502/4/4
f 503/4/4 504/4/4 505/4/4
f 505/4/4 504/4/4 506/4/4
f 507/4/4 508/4/4 509/4/4
f 509/4/4 508/4/4 510/4/4
f 511/4/4 512/4/4 513/4/4
f 513/4/4 512/4/4 514/4/4
f 515/4/4 516/4/4 517/4/4
f 517/4/4 516/4/4 518/4/4
f 519/4/4 520/4/4 521/4/4
f 521/4/4 520/4/4 522/4/4
f 523/2/4 524/2/4 525/2/4
f 525/2/4 524/2/4 526/2/4
f 527/2/4 528/2/4 529/2/4
f 529/2/4 528/2/4 530/2/4
f 531/4/4 532/4/4 535/4/4
f 535/4/4 532/4/4 536/4/4
f 533/4/4 534/4/4 538/4/4
f 538/4/4 534/4/4 539/4/4
f 536/4/4 537/4/4 540/4/4
f 540/4/4 537/4/4 541/4/4
f 542/4/4 543/4/4 545/4/4
f 545/4/4 543/4/4 546/4/4
f 544/4/4 545/4/4 547/4/4
f 547/4/4 545/4/4 548/4/4
f 549/4/4 550/4/4 551/4/4
f 551/4/4 550/4/4 552/4/4
f 553/4/4 554/4/4 555/4/4
f 555/4/4 554/4/4 556/4/4
f 557/4/4 558/4/4 560/4/4
f 559/4/4 560/4/4 561/4/4
f 560/4/4 558/4/4 562/4/4
f 561/4/4 560/4/4 562/4/4
f 565/4/4 566/4/4 567/4/4
f 567/4/4 566/4/4 568/4/4
f 563/4/4 564/4/4 569/4/4
f 569/4/4 564/4/4 570/4/4
f 571/4/4 572/4/4 577/4/4
f 577/4/4 572/4/4 578/4/4
f 571/4/4 577/4/4 579/4/4
f 578/4/4 572/4/4 580/4/4
f 571/4/4 579/4/4 581/4/4
f 579/4/4 580/4/4 581/4/4
f 580/4/4 572/4/4 582/4/4
f 581/4/4 580/4/4 582/4/4
f 573/4/4 574/4/4 583/4/4
f 583/4/4 574/4/4 584/4/4
f 575/4/4 576/4/4 585/4/4
f 585/4/4 576/4/4 586/4/4
f 587/4/4 588/4/4 589/4/4
f 589/4/4 588/4/4 590/4/4
f 590/4/4 591/4/4 592/4/4
f 592/4/4 591/4/4 593/4/4
f 594/4/4 595/4/4 599/4/4
f 599/4/4 595/4/4 600/4/4
f 596/1/4 597/1/4 601/1/4
f 601/1/4 597/1/4 602/1/4
f 598/4/4 599/4/4 603/4/4
f 603/4/4 599/4/4 604/4/4
f 605/4/4 606/4/4 607/4/4
f 607/4/4 606/4/4 608/4/4
f 605/4/4 607/4/4 609/4/4
f 608/4/4 606/4/4 610/4/4
f 605/4/4 609/4/4 611/4/4
f 609/4/4 610/4/4 611/4/4
f 610/4/4 606/4/4 612/4/4
f 611/4/4 610/4/4 612/4/4
f 613/4/4 614/4/4 615/4/4
f 615/4/4 614/4/4 616/4/4
f 621/4/5 618/4/5 617/4/5
f 622/4/5 618/4/5 621/4/5
f 623/4/5 620/4/5 619/4/5
f 624/4/5 620/4/5 623/4/5
f 629/4/5 626/4/5 625/4/5
f 630/4/5 626/4/5 629/4/5
f 631/4/5 628/4/5 627/4/5
f 632/4/5 628/4/5 631/4/5
f 635/4/5 634/4/5 633/4/5
f 636/4/5 634/4/5 635/4/5
f 639/4/5 638/4/5 637/4/5
f 640/4/5 638/4/5 639/4/5
f 643/4/5 642/4/5 641/4/5
f 644/4/5 642/4/5 643/4/5
f 647/4/5 646/4/5 645/4/5
f 648/4/5 646/4/5 647/4/5
f 651/4/5 650/4/5 649/4/5
f 652/4/5 650/4/5 651/4/5
f 657/4/5 654/4/5 653/4/5
f 658/4/5 654/4/5 657/4/5
f 659/4/5 656/4/5 655/4/5
f 660/4/5 656/4/5 659/4/5
f 665/4/5 662/4/5 661/4/5
f 666/4/5 662/4/5 665/4/5
f 667/4/5 664/4/5 663/4/5
f 668/4/5 664/4/5 667/4/5
f 671/4/5 670/4/5 669/4/5
f 672/4/5 670/4/5 671/4/5
f 673/4/5 671/4/5 669/4/5
f 674/4/5 670/4/5 672/4/5
f 675/4/5 673/4/5 669/4/5
f 675/4/5 674/4/5 673/4/5
f 676/4/5 670/4/5 674/4/5
f 676/4/5 674/4/5 675/4/5
f 680/3/5 678/3/5 677/3/5
f 681/3/5 678/3/5 680/3/5
f 684/3/5 680/3/5 679/3/5
f 684/3/5 682/3/5 681/3/5
f 684/3/5 681/3/5 680/3/5
f 685/3/5 682/3/5 684/3/5
f 687/3/5 684/3/5 683/3/5
f 687/3/5 686/3/5 685/3/5
f 687/3/5 685/3/5 684/3/5
f 688/3/5 686/3/5 687/3/5
f 689/3/5 686/3/5 688/3/5
f 690/3/5 686/3/5 689/3/5
f 693/4/5 692/4/5 691/4/5
f 694/4/5 692/4/5 693/4/5
f 697/1/5 689/1/5 688/1/5
f 698/1/5 689/1/5 697/1/5
f 700/4/5 695/4/5 694/4/5
f 701/4/5 695/4/5 700/4/5
f 702/4/5 699/4/5 698/4/5
f 702/4/5 698/4/5 697/4/5
f 702/4/5 697/4/5 696/4/5
f 703/4/5 699/4/5 702/4/5
f 704/4/5 699/4/5 703/4/5
f 705/4/5 699/4/5 704/4/5
f 706/1/5 704/1/5 703/1/5
f 707/1/5 704/1/5 706/1/5
f 710/4/5 709/4/5 708/4/5
f 711/4/5 709/4/5 710/4/5
f 712/4/5 710/4/5 708/4/5
f 713/4/5 709/4/5 711/4/5
f 714/4/5 712/4/5 708/4/5
f 714/4/5 713/4/5 712/4/5
f 715/4/5 709/4/5 713/4/5
f 715/4/5 713/4/5 714/4/5
f 721/4/5 717/4/5 716/4/5
f 722/4/5 717/4/5 721/4/5
f 723/4/5 719/4/5 718/4/5
f 724/4/5 719/4/5 723/4/5
f 726/4/5 721/4/5 720/4/5
f 727/4/5 721/4/5 726/4/5
f 730/4/5 725/4/5 724/4/5
f 731/4/5 725/4/5 730/4/5
f 732/4/5 728/4/5 727/4/5
f 733/4/5 728/4/5 732/4/5
f 734/4/5 730/4/5 729/4/5
f 735/4/5 730/4/5 734/4/5
f 740/2/5 737/2/5 736/2/5
f 741/2/5 737/2/5 740/2/5
f 742/2/5 739/2/5 738/2/5
f 743/2/5 739/2/5 742/2/5
f 748/4/5 745/4/5 744/4/5
f 749/4/5 745/4/5 748/4/5
f 750/4/5 747/4/5 746/4/5
f 751/4/5 747/4/5 750/4/5
f 756/4/5 753/4/5 752/4/5
f 757/4/5 753/4/5 756/4/5
f 758/4/5 755/4/5 754/4/5
f 759/4/5 755/4/5 758/4/5
f 760/4/6 761/4/6 764/4/6
f 764/4/6 761/4/6 765/4/6
f 762/4/6 763/4/6 766/4/6
f 766/4/6 763/4/6 767/4/6
f 768/4/6 769/4/6 772/4/6
f 772/4/6 769/4/6 773/4/6
f 770/4/6 771/4/6 774/4/6
f 774/4/6 771/4/6 775/4/6
f 776/4/6 777/4/6 780/4/6
f 780/4/6 777/4/6 781/4/6
f 778/4/6 779/4/6 782/4/6
f 782/4/6 779/4/6 783/4/6
f 784/4/6 785/4/6 788/4/6
f 788/4/6 785/4/6 789/4/6
f 786/4/6 787/4/6 790/4/6
f 790/4/6 787/4/6 791/4/6
f 792/4/6 793/4/6 794/4/6
f 794/4/6 793/4/6 795/4/6
f 796/4/6 797/4/6 798/4/6
f 798/4/6 797/4/6 799/4/6
f 796/4/6 798/4/6 800/4/6
f 799/4/6 797/4/6 801/4/6
f 796/4/6 800/4/6 802/4/6
f 800/4/6 801/4/6 802/4/6
f 801/4/6 797/4/6 803/4/6
f 802/4/6 801/4/6 803/4/6
f 804/4/6 805/4/6 806/4/6
f 806/4/6 805/4/6 807/4/6
f 808/4/6 809/4/6 810/4/6
f 810/4/6 809/4/6 811/4/6
f 812/4/6 813/4/6 814/4/6
f 814/4/6 813/4/6 815/4/6
f 816/4/6 817/4/6 818/4/6
f 818/4/6 817/4/6 819/4/6
f 819/4/6 820/4/6 823/4/6
f 823/4/6 820/4/6 824/4/6
f 821/4/6 822/4/6 825/4/6
f 825/4/6 822/4/6 826/4/6
f 827/3/6 828/3/6 830/3/6
f 830/3/6 828/3/6 831/3/6
f 829/3/6 830/3/6 834/3/6
f 831/3/6 832/3/6 834/3/6
f 830/3/6 831/3/6 834/3/6
f 834/3/6 832/3/6 835/3/6
f 833/3/6 834/3/6 837/3/6
f 835/3/6 836/3/6 837/3/6
f 834/3/6 835/3/6 837/3/6
f 837/3/6 836/3/6 838/3/6
f 838/3/6 836/3/6 839/3/6
f 839/3/6 836/3/6 840/3/6
f 838/1/6 839/1/6 841/1/6
f 841/1/6 839/1/6 842/1/6
f 838/1/6 841/1/6 843/1/6
f 838/1/6 843/1/6 845/1/6
f 843/1/6 844/1/6 845/1/6
f 845/1/6 844/1/6 846/1/6
f 847/4/6 848/4/6 849/4/6
f 849/4/6 848/4/6 850/4/6
f 851/4/6 852/4/6 853/4/6
f 853/4/6 852/4/6 854/4/6
f 847/4/6 849/4/6 855/4/6
f 850/4/6 848/4/6 856/4/6
f 847/4/6 855/4/6 857/4/6
f 855/4/6 856/4/6 857/4/6
f 856/4/6 848/4/6 858/4/6
f 857/4/6 856/4/6 858/4/6
f 859/4/6 860/4/6 864/4/6
f 864/4/6 860/4/6 865/4/6
f 861/4/6 862/4/6 866/4/6
f 866/4/6 862/4/6 867/4/6
f 863/4/6 864/4/6 869/4/6
f 869/4/6 864/4/6 870/4/6
f 867/4/6 868/4/6 873/4/6
f 873/4/6 868/4/6 874/4/6
f 870/4/6 871/4/6 875/4/6
f 875/4/6 871/4/6 876/4/6
f 872/4/6 873/4/6 877/4/6
f 877/4/6 873/4/6 878/4/6
f 879/2/6 880/2/6 883/2/6
f 883/2/6 880/2/6 884/2/6
f 881/2/6 882/2/6 885/2/6
f 885/2/6 882/2/6 886/2/6
f 887/4/6 888/4/6 889/4/6
f 889/4/6 888/4/6 890/4/6
f 890/4/6 888/4/6 891/4/6
f 891/4/6 888/4/6 892/4/6
f 890/4/6 891/4/6 894/4/6
f 894/4/6 891/4/6 895/4/6
f 893/4/6 894/4/6 897/4/6
f 895/4/6 896/4/6 897/4/6
f 894/4/6 895/4/6 897/4/6
f 897/4/6 896/4/6 898/4/6
f 899/4/6 900/4/6 903/4/6
f 903/4/6 900/4/6 904/4/6
f 901/4/6 902/4/6 905/4/6
f 905/4/6 902/4/6 906/4/6
f 907/4/6 908/4/6 911/4/6
f 911/4/6 908/4/6 912/4/6
f 909/4/6 910/4/6 913/4/6
f 913/4/6 910/4/6 914/4/6
f 915/4/6 916/4/6 919/4/6
f 919/4/6 916/4/6 920/4/6
f 917/4/6 918/4/6 921/4/6
f 921/4/6 918/4/6 922/4/6
